<svg width="36" height="36" viewBox="0 0 36 36" xmlns="http://www.w3.org/2000/svg">
    <g clip-path="url(#clip0_16_318)">
        <path d="M31.2596 15.6696C31.2596 15.4929 31.1149 15.3482 30.9381 15.3482H28.5274C28.3506 15.3482 28.206 15.4929 28.206 15.6696C28.206 21.3067 23.6377 25.875 18.0006 25.875C12.3636 25.875 7.79527 21.3067 7.79527 15.6696C7.79527 15.4929 7.65063 15.3482 7.47384 15.3482H5.06313C4.88634 15.3482 4.7417 15.4929 4.7417 15.6696C4.7417 22.4478 9.82831 28.0406 16.3935 28.8321V32.9464H10.5555C10.0051 32.9464 9.56313 33.521 9.56313 34.2321V35.6786C9.56313 35.8554 9.67563 36 9.81224 36H26.189C26.3256 36 26.4381 35.8554 26.4381 35.6786V34.2321C26.4381 33.521 25.9962 32.9464 25.4457 32.9464H19.4471V28.8522C26.0886 28.129 31.2596 22.504 31.2596 15.6696ZM18.0006 22.5C21.7734 22.5 24.831 19.4786 24.831 15.75V6.75C24.831 3.02143 21.7734 0 18.0006 0C14.2279 0 11.1703 3.02143 11.1703 6.75V15.75C11.1703 19.4786 14.2279 22.5 18.0006 22.5ZM14.2238 6.75C14.2238 4.71696 15.9073 3.05357 18.0006 3.05357C20.0939 3.05357 21.7774 4.71696 21.7774 6.75V15.75C21.7774 17.783 20.0939 19.4464 18.0006 19.4464C15.9073 19.4464 14.2238 17.783 14.2238 15.75V6.75Z" />
    </g>
    <defs>
        <clipPath id="clip0_16_318">
            <rect width="36" height="36" />
        </clipPath>
    </defs>
</svg>
