<svg width="36" height="36" viewBox="0 0 36 36" xmlns="http://www.w3.org/2000/svg">
    <g clip-path="url(#clip0_16_243)">
        <path d="M4 10.111C3.93031 10.1072 3.86012 10.1052 3.78947 10.1052C1.69661 10.1052 0 11.8018 0 13.8947V17.6842C0 19.777 1.69661 21.4736 3.78947 21.4736C3.86012 21.4736 3.93031 21.4717 4 21.4679V19.5674C3.93089 19.575 3.86066 19.5789 3.78951 19.5789C2.74308 19.5789 1.89478 18.7306 1.89478 17.6842V13.8947C1.89478 12.8483 2.74308 12 3.78951 12C3.86066 12 3.93089 12.0039 4 12.0116V10.111Z" />
        <path d="M32 21.4679C32.0697 21.4717 32.1399 21.4736 32.2106 21.4736C34.3035 21.4736 36.0001 19.777 36.0001 17.6842V13.8947C36.0001 11.8018 34.3035 10.1052 32.2106 10.1052C32.1399 10.1052 32.0697 10.1072 32 10.111V12.0116C32.0691 12.0039 32.1393 12 32.2104 12C33.2568 12 34.1051 12.8483 34.1051 13.8947V17.6842C34.1051 18.7306 33.2568 19.5789 32.2104 19.5789C32.1393 19.5789 32.0691 19.575 32 19.5674V21.4679Z" />
        <path fill-rule="evenodd" clip-rule="evenodd" d="M13.2632 0C7.68224 0 3.15796 4.52428 3.15796 10.1053V18.9474C3.15796 24.5283 7.68224 29.0526 13.2632 29.0526H22.7369C28.3179 29.0526 32.8422 24.5284 32.8422 18.9474V10.1053C32.8422 4.52428 28.3179 0 22.7369 0H13.2632ZM22.1054 1.89478C26.9887 1.89478 30.9475 5.85352 30.9475 10.7369V18.3158C30.9475 23.1992 26.9887 27.1579 22.1054 27.1579H13.8948C9.01148 27.1579 5.05273 23.1992 5.05273 18.3158V10.7369C5.05273 5.85352 9.01148 1.89478 13.8948 1.89478H22.1054Z" />
        <path d="M4.54053 36C6.29514 33.0086 9.54462 31 13.2632 31H22.7369C26.4555 31 29.705 33.0086 31.4596 36H28.834C27.2122 34.0997 24.7995 32.8948 22.1054 32.8948H13.8948C11.2007 32.8948 8.78804 34.0997 7.16625 36H4.54053Z" />
        <path fill-rule="evenodd" clip-rule="evenodd" d="M28.421 15.1579C28.421 12.3674 26.1588 10.1052 23.3683 10.1052H12.6315C9.841 10.1052 7.57886 12.3674 7.57886 15.1579V18.9473C7.57886 21.7378 9.841 24 12.6315 24H23.3683C26.1588 24 28.421 21.7378 28.421 18.9473V15.1579ZM14.5263 14.2106C14.5263 13.6873 14.1022 13.2632 13.579 13.2632C13.0557 13.2632 12.6316 13.6873 12.6316 14.2106V16.7369C12.6316 17.2601 13.0557 17.6842 13.579 17.6842C14.1022 17.6842 14.5263 17.2601 14.5263 16.7369V14.2106ZM22.421 13.2632C22.9442 13.2632 23.3684 13.6873 23.3684 14.2106V16.7369C23.3684 17.2601 22.9442 17.6842 22.421 17.6842C21.8978 17.6842 21.4736 17.2601 21.4736 16.7369V14.2106C21.4736 13.6873 21.8978 13.2632 22.421 13.2632Z" />
    </g>
    <defs>
        <clipPath id="clip0_16_243">
            <rect width="36" height="36" />
        </clipPath>
    </defs>
</svg>
