<svg width="36" height="36" viewBox="0 0 36 36" xmlns="http://www.w3.org/2000/svg">
    <path d="M32.7863 4.82633H26.0363V2.2549C26.0363 2.07811 25.8917 1.93347 25.7149 1.93347H23.4649C23.2881 1.93347 23.1435 2.07811 23.1435 2.2549V4.82633H12.8577V2.2549C12.8577 2.07811 12.7131 1.93347 12.5363 1.93347H10.2863C10.1095 1.93347 9.96488 2.07811 9.96488 2.2549V4.82633H3.21488C2.50372 4.82633 1.92917 5.40088 1.92917 6.11204V32.7906C1.92917 33.5018 2.50372 34.0763 3.21488 34.0763H32.7863C33.4975 34.0763 34.072 33.5018 34.072 32.7906V6.11204C34.072 5.40088 33.4975 4.82633 32.7863 4.82633ZM31.1792 31.1835H4.82203V15.9156H31.1792V31.1835ZM4.82203 13.1835V7.71919H9.96488V9.64776C9.96488 9.82454 10.1095 9.96919 10.2863 9.96919H12.5363C12.7131 9.96919 12.8577 9.82454 12.8577 9.64776V7.71919H23.1435V9.64776C23.1435 9.82454 23.2881 9.96919 23.4649 9.96919H25.7149C25.8917 9.96919 26.0363 9.82454 26.0363 9.64776V7.71919H31.1792V13.1835H4.82203Z" />
</svg>
