<svg width="36" height="36" viewBox="0 0 36 36" xmlns="http://www.w3.org/2000/svg">
    <path d="M32.3441 10.3313L25.1646 4.1567C25.0481 4.05625 24.8994 4 24.7427 4H21.1869C20.8896 4 20.753 4.36964 20.978 4.5625L27.0485 9.77679H11.536C11.3592 9.77679 11.2146 9.92143 11.2146 10.0982V12.5089C11.2146 12.6857 11.3592 12.8304 11.536 12.8304H27.0445L20.974 18.0446C20.749 18.2415 20.8856 18.6071 21.1829 18.6071H24.8592C24.9356 18.6071 25.0119 18.579 25.0682 18.5268L32.3441 12.2759C32.4832 12.1549 32.5947 12.0056 32.6711 11.8378C32.7475 11.6701 32.7871 11.4879 32.7871 11.3036C32.7871 11.1192 32.7475 10.9371 32.6711 10.7693C32.5947 10.6016 32.4832 10.4522 32.3441 10.3313Z" />
    <path d="M3.44304 26.2759L10.6225 32.4504C10.739 32.5509 10.8877 32.6071 11.0444 32.6071H14.6002C14.8975 32.6071 15.0341 32.2375 14.8091 32.0446L8.73858 26.8304H24.2511C24.4279 26.8304 24.5725 26.6857 24.5725 26.5089V24.0982C24.5725 23.9214 24.4279 23.7768 24.2511 23.7768H8.7426L14.8131 18.5625C15.0381 18.3656 14.9015 18 14.6042 18H10.9279C10.8515 18 10.7752 18.0281 10.7189 18.0804L3.44304 24.3313C3.30395 24.4522 3.19243 24.6016 3.116 24.7693C3.03958 24.9371 3.00003 25.1192 3.00003 25.3036C3.00003 25.4879 3.03958 25.6701 3.116 25.8378C3.19243 26.0056 3.30395 26.1549 3.44304 26.2759Z" />
</svg>
