<svg width="36" height="36" viewBox="0 0 36 36" xmlns="http://www.w3.org/2000/svg">
    <path d="M1.14918 35.7586C0.989385 35.7586 0.829129 35.7262 0.678005 35.6591C0.265267 35.4762 0 35.0708 0 34.6243V11.1437C0 5.55064 4.61226 1 10.281 1H25.719C31.3877 1 36 5.55064 36 11.1437V17.9007C36 23.4937 31.3877 28.0443 25.719 28.0443H10.3933L1.91257 35.4726C1.69752 35.6604 1.42495 35.7586 1.14918 35.7586ZM10.2806 3.26856C5.87924 3.26856 2.29882 6.80159 2.29882 11.1437V32.1008L9.21128 26.0465C9.43226 25.8528 9.71898 25.751 10.0148 25.7609C10.0705 25.7632 10.1253 25.7668 10.1806 25.7704C10.2139 25.7731 10.2472 25.7762 10.281 25.7762H25.719C30.1203 25.7762 33.7007 22.2432 33.7007 17.9011V11.1441C33.7007 6.80159 30.1198 3.26901 25.719 3.26901H10.2806V3.26856Z" />
</svg>
