<svg width="36" height="36" viewBox="0 0 36 36" xmlns="http://www.w3.org/2000/svg">
    <g clip-path="url(#clip0_16_344)">
        <path d="M18.2536 15.8732C18.2236 15.8348 18.1852 15.8037 18.1413 15.7824C18.0974 15.761 18.0493 15.7499 18.0005 15.7499C17.9517 15.7499 17.9036 15.761 17.8597 15.7824C17.8159 15.8037 17.7775 15.8348 17.7474 15.8732L13.2474 21.5665C13.2103 21.6139 13.1873 21.6707 13.181 21.7306C13.1747 21.7904 13.1853 21.8508 13.2117 21.9049C13.2381 21.959 13.2792 22.0045 13.3303 22.0363C13.3814 22.0681 13.4403 22.0849 13.5005 22.0848H16.4697V31.8241C16.4697 32.0009 16.6144 32.1455 16.7911 32.1455H19.2019C19.3786 32.1455 19.5233 32.0009 19.5233 31.8241V22.0888H22.5005C22.7697 22.0888 22.9184 21.7795 22.7536 21.5705L18.2536 15.8732Z" />
        <path d="M30.0295 12.1548C28.1893 7.30119 23.5004 3.84985 18.008 3.84985C12.5156 3.84985 7.82679 7.29717 5.98661 12.1507C2.5433 13.0548 0 16.1927 0 19.9213C0 24.361 3.59598 27.957 8.0317 27.957H9.64286C9.81964 27.957 9.96429 27.8124 9.96429 27.6356V25.2249C9.96429 25.0481 9.81964 24.9034 9.64286 24.9034H8.0317C6.67768 24.9034 5.40402 24.365 4.4558 23.3887C3.51161 22.4164 3.00937 21.1066 3.05357 19.7485C3.08973 18.6878 3.45134 17.6914 4.10625 16.8516C4.77723 15.9958 5.71741 15.3731 6.76205 15.0958L8.28482 14.6981L8.8433 13.2275C9.18884 12.3115 9.67098 11.4557 10.2777 10.6802C10.8766 9.91163 11.5861 9.23599 12.383 8.6753C14.0344 7.51414 15.979 6.89941 18.008 6.89941C20.0371 6.89941 21.9817 7.51414 23.633 8.6753C24.4326 9.2378 25.1397 9.9128 25.7384 10.6802C26.3451 11.4557 26.8272 12.3155 27.1728 13.2275L27.7272 14.694L29.246 15.0958C31.4237 15.6824 32.9464 17.6632 32.9464 19.9213C32.9464 21.2512 32.4281 22.5048 31.4879 23.4449C31.0269 23.9087 30.4784 24.2764 29.8742 24.5268C29.2701 24.7771 28.6223 24.9051 27.9683 24.9034H26.3571C26.1804 24.9034 26.0357 25.0481 26.0357 25.2249V27.6356C26.0357 27.8124 26.1804 27.957 26.3571 27.957H27.9683C32.404 27.957 36 24.361 36 19.9213C36 16.1967 33.4647 13.0628 30.0295 12.1548Z" />
    </g>
    <defs>
        <clipPath id="clip0_16_344">
            <rect width="36" height="36" />
        </clipPath>
    </defs>
</svg>
