<svg width="36" height="36" viewBox="0 0 36 36" xmlns="http://www.w3.org/2000/svg">
    <path d="M17.9994 2.56653C9.47753 2.56653 2.57083 9.47323 2.57083 17.9951V32.4594C2.57083 32.9938 3.00074 33.4237 3.53512 33.4237H10.928C12.3463 33.4237 13.4994 32.2706 13.4994 30.8522V22.4951C13.4994 21.0768 12.3463 19.9237 10.928 19.9237H5.46369V17.9951C5.46369 11.0723 11.0766 5.45939 17.9994 5.45939C24.9222 5.45939 30.5351 11.0723 30.5351 17.9951V19.9237H25.0708C23.6525 19.9237 22.4994 21.0768 22.4994 22.4951V30.8522C22.4994 32.2706 23.6525 33.4237 25.0708 33.4237H32.4637C32.9981 33.4237 33.428 32.9938 33.428 32.4594V17.9951C33.428 9.47323 26.5213 2.56653 17.9994 2.56653ZM10.6065 22.8165V30.5308H5.46369V22.8165H10.6065ZM30.5351 30.5308H25.3923V22.8165H30.5351V30.5308Z" />
</svg>
