<svg width="36" height="36" viewBox="0 0 36 36" xmlns="http://www.w3.org/2000/svg">
    <g clip-path="url(#clip0_16_227)">
        <path d="M34.5857 12.9263C33.6822 10.7877 32.3722 8.84461 30.7286 7.2049C29.0889 5.56123 27.1458 4.25131 25.0071 3.34776C22.7853 2.40758 20.4308 1.93347 18 1.93347C15.5692 1.93347 13.2147 2.40758 10.9929 3.34776C8.85419 4.25131 6.91114 5.56123 5.27143 7.2049C3.62776 8.84461 2.31784 10.7877 1.41429 12.9263C0.474107 15.1482 0 17.5027 0 19.9335C0 25.2652 2.34241 30.2875 6.42455 33.7187L6.49286 33.775C6.72589 33.9678 7.0192 34.0763 7.32054 34.0763H28.6835C28.9848 34.0763 29.2781 33.9678 29.5112 33.775L29.5795 33.7187C33.6576 30.2875 36 25.2652 36 19.9335C36 17.5027 35.5219 15.1482 34.5857 12.9263ZM28.0205 31.0228H7.97946C6.42695 29.6229 5.18612 27.9123 4.3375 26.0018C3.48889 24.0914 3.05145 22.0239 3.05357 19.9335C3.05357 15.9397 4.60848 12.187 7.43304 9.36651C10.2576 6.54195 14.0103 4.98704 18 4.98704C21.9937 4.98704 25.7464 6.54195 28.567 9.36651C31.3915 12.1911 32.9464 15.9437 32.9464 19.9335C32.9464 24.1763 31.1585 28.1902 28.0205 31.0228ZM22.4799 14.3687C22.4195 14.3089 22.3379 14.2754 22.2529 14.2754C22.1679 14.2754 22.0863 14.3089 22.0259 14.3687L18.6308 17.7638C17.8795 17.5629 17.0478 17.7558 16.4571 18.3464C16.2479 18.5552 16.082 18.8032 15.9687 19.0762C15.8555 19.3493 15.7972 19.6419 15.7972 19.9375C15.7972 20.2331 15.8555 20.5257 15.9687 20.7987C16.082 21.0718 16.2479 21.3198 16.4571 21.5286C16.6659 21.7378 16.9139 21.9037 17.187 22.017C17.46 22.1302 17.7526 22.1885 18.0482 22.1885C18.3438 22.1885 18.6364 22.1302 18.9095 22.017C19.1825 21.9037 19.4305 21.7378 19.6393 21.5286C19.9191 21.2496 20.1203 20.9017 20.2226 20.52C20.3249 20.1383 20.3247 19.7364 20.2219 19.3549L23.617 15.9598C23.7415 15.8353 23.7415 15.6303 23.617 15.5058L22.4799 14.3687ZM17.1161 10.2906H18.8839C19.0607 10.2906 19.2054 10.146 19.2054 9.96919V6.7549C19.2054 6.57811 19.0607 6.43347 18.8839 6.43347H17.1161C16.9393 6.43347 16.7946 6.57811 16.7946 6.7549V9.96919C16.7946 10.146 16.9393 10.2906 17.1161 10.2906ZM27.5625 19.0495V20.8174C27.5625 20.9942 27.7071 21.1388 27.8839 21.1388H31.0982C31.275 21.1388 31.4196 20.9942 31.4196 20.8174V19.0495C31.4196 18.8728 31.275 18.7281 31.0982 18.7281H27.8839C27.7071 18.7281 27.5625 18.8728 27.5625 19.0495ZM28.0728 11.1263L26.8232 9.87678C26.7628 9.81696 26.6812 9.7834 26.5962 9.7834C26.5112 9.7834 26.4296 9.81696 26.3692 9.87678L24.0951 12.1509C24.0353 12.2113 24.0017 12.2929 24.0017 12.3779C24.0017 12.4629 24.0353 12.5445 24.0951 12.6049L25.3446 13.8545C25.4692 13.979 25.6741 13.979 25.7987 13.8545L28.0728 11.5803C28.1973 11.4558 28.1973 11.2509 28.0728 11.1263ZM9.64688 9.87678C9.58646 9.81696 9.50488 9.7834 9.41987 9.7834C9.33485 9.7834 9.25327 9.81696 9.19286 9.87678L7.9433 11.1263C7.88349 11.1867 7.84993 11.2683 7.84993 11.3533C7.84993 11.4384 7.88349 11.5199 7.9433 11.5803L10.2174 13.8545C10.342 13.979 10.5469 13.979 10.6714 13.8545L11.921 12.6049C12.0455 12.4803 12.0455 12.2754 11.921 12.1509L9.64688 9.87678ZM7.95536 18.7281H4.74107C4.56429 18.7281 4.41964 18.8728 4.41964 19.0495V20.8174C4.41964 20.9942 4.56429 21.1388 4.74107 21.1388H7.95536C8.13214 21.1388 8.27679 20.9942 8.27679 20.8174V19.0495C8.27679 18.8728 8.13214 18.7281 7.95536 18.7281Z" />
    </g>
    <defs>
        <clipPath id="clip0_16_227">
            <rect width="36" height="36" />
        </clipPath>
    </defs>
</svg>
