<svg width="36" height="36" viewBox="0 0 36 36" xmlns="http://www.w3.org/2000/svg">
    <path d="M11.8923 4.81778H11.5708C11.7476 4.81778 11.8923 4.67314 11.8923 4.49636V4.81778H24.1066V4.49636C24.1066 4.67314 24.2512 4.81778 24.428 4.81778H24.1066V7.71064H26.9994V4.49636C26.9994 3.07805 25.8463 1.92493 24.428 1.92493H11.5708C10.1525 1.92493 8.9994 3.07805 8.9994 4.49636V7.71064H11.8923V4.81778ZM32.1423 7.71064H3.85655C3.14538 7.71064 2.57083 8.28519 2.57083 8.99636V10.2821C2.57083 10.4589 2.71547 10.6035 2.89226 10.6035H5.31905L6.31146 31.6169C6.37574 32.987 7.50878 34.0678 8.87887 34.0678H27.1199C28.4941 34.0678 29.6231 32.991 29.6874 31.6169L30.6798 10.6035H33.1066C33.2833 10.6035 33.428 10.4589 33.428 10.2821V8.99636C33.428 8.28519 32.8534 7.71064 32.1423 7.71064ZM26.8106 31.1749H9.18824L8.21592 10.6035H27.7829L26.8106 31.1749Z" />
</svg>
