<svg width="36" height="36" viewBox="0 0 36 36" xmlns="http://www.w3.org/2000/svg">
    <path d="M33.1182 25.2876C31.4106 24.2993 29.3294 24.5644 27.9271 25.8019L25.7977 24.5685V18.4734C25.7977 17.8426 25.4602 17.256 24.9137 16.9426L19.4494 13.7966V11.1006C21.2253 10.4979 22.503 8.81845 22.503 6.83765C22.503 4.35059 20.4901 2.33765 18.003 2.33765C15.516 2.33765 13.503 4.35059 13.503 6.83765C13.503 8.81845 14.7807 10.4979 16.5566 11.1006V13.7966L11.0923 16.9426C10.5459 17.256 10.2084 17.8426 10.2084 18.4734V24.5644L8.07891 25.7979C6.67667 24.5604 4.59141 24.2952 2.88784 25.2836C0.738281 26.5292 0.00703162 29.2774 1.24051 31.4269C2.47801 33.5765 5.21418 34.3158 7.35569 33.0743C9.06328 32.0859 9.87489 30.1412 9.50926 28.301L11.466 27.164L17.1151 30.4185C17.3883 30.5751 17.6936 30.6555 17.999 30.6555C18.3044 30.6555 18.6097 30.5751 18.8829 30.4185L24.528 27.168L26.4847 28.3051C26.1191 30.1412 26.9347 32.0899 28.6383 33.0783C30.7798 34.3198 33.52 33.5845 34.7535 31.431C35.991 29.2774 35.2597 26.5292 33.1182 25.2876ZM6.07801 30.8484C5.85978 30.9748 5.61871 31.0567 5.36866 31.0896C5.11862 31.1225 4.86455 31.1055 4.62107 31.0398C4.37759 30.9741 4.14952 30.8609 3.94997 30.7066C3.75043 30.5524 3.58336 30.3603 3.45837 30.1412C2.92801 29.2211 3.24141 28.0399 4.1615 27.5095C4.37973 27.3831 4.6208 27.3011 4.87085 27.2683C5.12089 27.2354 5.37496 27.2523 5.61844 27.3181C5.86192 27.3838 6.08999 27.497 6.28954 27.6512C6.48908 27.8055 6.65616 27.9976 6.78114 28.2167C7.3115 29.1368 6.9981 30.318 6.07801 30.8484ZM16.0704 6.83765C16.0807 6.33297 16.2884 5.85245 16.649 5.49918C17.0096 5.14591 17.4942 4.94804 17.999 4.94804C18.5038 4.94804 18.9884 5.14591 19.349 5.49918C19.7096 5.85245 19.9173 6.33297 19.9276 6.83765C19.9173 7.34232 19.7096 7.82285 19.349 8.17612C18.9884 8.52939 18.5038 8.72725 17.999 8.72725C17.4942 8.72725 17.0096 8.52939 16.649 8.17612C16.2884 7.82285 16.0807 7.34232 16.0704 6.83765ZM22.9008 24.7653L17.999 27.5899L13.0972 24.7653V19.1243L17.999 16.2997L22.9008 19.1243V24.7653ZM32.5396 30.1452C32.0093 31.0653 30.8361 31.3827 29.92 30.8524C29.0039 30.322 28.6865 29.1408 29.2169 28.2207C29.7472 27.3006 30.9204 26.9832 31.8365 27.5135C32.7566 28.0439 33.07 29.2211 32.5396 30.1452Z" />
</svg>
