<svg width="36" height="36" viewBox="0 0 36 36" xmlns="http://www.w3.org/2000/svg">
    <path d="M4.5 17.9647C4.5 18.2602 4.5582 18.5528 4.67127 18.8258C4.78434 19.0987 4.95008 19.3468 5.15901 19.5557C5.36794 19.7646 5.61598 19.9304 5.88896 20.0435C6.16195 20.1565 6.45453 20.2147 6.75 20.2147C7.04547 20.2147 7.33806 20.1565 7.61104 20.0435C7.88402 19.9304 8.13206 19.7646 8.34099 19.5557C8.54992 19.3468 8.71566 19.0987 8.82873 18.8258C8.9418 18.5528 9 18.2602 9 17.9647C9 17.6692 8.9418 17.3767 8.82873 17.1037C8.71566 16.8307 8.54992 16.5827 8.34099 16.3737C8.13206 16.1648 7.88402 15.9991 7.61104 15.886C7.33806 15.7729 7.04547 15.7147 6.75 15.7147C6.45453 15.7147 6.16195 15.7729 5.88896 15.886C5.61598 15.9991 5.36794 16.1648 5.15901 16.3737C4.95008 16.5827 4.78434 16.8307 4.67127 17.1037C4.5582 17.3767 4.5 17.6692 4.5 17.9647ZM15.75 17.9647C15.75 18.5615 15.9871 19.1338 16.409 19.5557C16.831 19.9777 17.4033 20.2147 18 20.2147C18.5967 20.2147 19.169 19.9777 19.591 19.5557C20.0129 19.1338 20.25 18.5615 20.25 17.9647C20.25 17.368 20.0129 16.7957 19.591 16.3737C19.169 15.9518 18.5967 15.7147 18 15.7147C17.4033 15.7147 16.831 15.9518 16.409 16.3737C15.9871 16.7957 15.75 17.368 15.75 17.9647ZM27 17.9647C27 18.5615 27.2371 19.1338 27.659 19.5557C28.081 19.9777 28.6533 20.2147 29.25 20.2147C29.8467 20.2147 30.419 19.9777 30.841 19.5557C31.2629 19.1338 31.5 18.5615 31.5 17.9647C31.5 17.368 31.2629 16.7957 30.841 16.3737C30.419 15.9518 29.8467 15.7147 29.25 15.7147C28.6533 15.7147 28.081 15.9518 27.659 16.3737C27.2371 16.7957 27 17.368 27 17.9647Z" />
</svg>
