<svg width="36" height="36" viewBox="0 0 36 36" xmlns="http://www.w3.org/2000/svg">
    <g clip-path="url(#clip0_16_287)">
        <path d="M18 0C8.05982 0 0 8.05982 0 18C0 27.9402 8.05982 36 18 36C27.9402 36 36 27.9402 36 18C36 8.05982 27.9402 0 18 0ZM16.7143 9.32143C16.7143 9.14464 16.8589 9 17.0357 9H18.9643C19.1411 9 19.2857 9.14464 19.2857 9.32143V20.25C19.2857 20.4268 19.1411 20.5714 18.9643 20.5714H17.0357C16.8589 20.5714 16.7143 20.4268 16.7143 20.25V9.32143ZM18 27C17.4953 26.9897 17.0148 26.782 16.6615 26.4214C16.3083 26.0609 16.1104 25.5762 16.1104 25.0714C16.1104 24.5667 16.3083 24.082 16.6615 23.7214C17.0148 23.3609 17.4953 23.1532 18 23.1429C18.5047 23.1532 18.9852 23.3609 19.3385 23.7214C19.6917 24.082 19.8896 24.5667 19.8896 25.0714C19.8896 25.5762 19.6917 26.0609 19.3385 26.4214C18.9852 26.782 18.5047 26.9897 18 27Z" />
    </g>
    <defs>
        <clipPath id="clip0_16_287">
            <rect width="36" height="36" />
        </clipPath>
    </defs>
</svg>
