<svg width="36" height="36" viewBox="0 0 36 36" xmlns="http://www.w3.org/2000/svg">
    <g clip-path="url(#clip0_16_297)">
        <path d="M31.7642 9.02411L23.1178 0.377679C22.8767 0.136607 22.5513 0 22.2098 0H5.14192C4.43075 0 3.8562 0.574554 3.8562 1.28571V34.7143C3.8562 35.4254 4.43075 36 5.14192 36H30.8562C31.5674 36 32.1419 35.4254 32.1419 34.7143V9.93616C32.1419 9.59464 32.0053 9.26518 31.7642 9.02411ZM29.1767 10.5268H21.6151V2.96518L29.1767 10.5268ZM29.2491 33.1071H6.74906V2.89286H18.883V11.5714C18.883 12.019 19.0608 12.4482 19.3772 12.7647C19.6937 13.0811 20.1229 13.2589 20.5705 13.2589H29.2491V33.1071ZM18.0834 20.7362L15.6004 16.6219C15.512 16.4772 15.3553 16.3888 15.1866 16.3888H13.6437C13.5513 16.3888 13.4629 16.4129 13.3866 16.4652C13.1616 16.6058 13.0933 16.9031 13.2379 17.1321L16.5446 22.3714L13.1937 27.7071C13.1482 27.7803 13.123 27.8643 13.1209 27.9505C13.1187 28.0367 13.1396 28.1218 13.1814 28.1972C13.2231 28.2726 13.2843 28.3354 13.3585 28.3793C13.4328 28.4231 13.5173 28.4463 13.6035 28.4464H14.9897C15.1584 28.4464 15.3111 28.358 15.3995 28.2174L17.9187 24.1393L20.4218 28.2134C20.5102 28.358 20.6669 28.4424 20.8316 28.4424H22.3383C22.4308 28.4424 22.5191 28.4143 22.5995 28.3661C22.8245 28.2214 22.8888 27.9241 22.7441 27.6991L19.3691 22.4598L22.7964 17.1362C22.8428 17.0632 22.8688 16.9791 22.8716 16.8927C22.8745 16.8063 22.8542 16.7207 22.8128 16.6448C22.7713 16.5689 22.7103 16.5055 22.6361 16.4612C22.5618 16.4169 22.477 16.3933 22.3906 16.3929H20.9562C20.7875 16.3929 20.6308 16.4812 20.5424 16.6259L18.0834 20.7362Z" />
    </g>
    <defs>
        <clipPath id="clip0_16_297">
            <rect width="36" height="36" />
        </clipPath>
    </defs>
</svg>
