<svg width="36" height="36" viewBox="0 0 36 36" xmlns="http://www.w3.org/2000/svg">
    <g clip-path="url(#clip0_16_305)">
        <path d="M14.4655 16.5536C14.2887 16.5536 14.1441 16.6982 14.1441 16.875V27.9643C14.1441 28.1411 14.2887 28.2857 14.4655 28.2857H15.7713C15.9481 28.2857 16.0927 28.1411 16.0927 27.9643V24.1272H18.636C21.0226 24.1272 22.5012 22.5643 22.5012 20.3464C22.5012 18.1567 21.0427 16.5576 18.6441 16.5576H14.4655V16.5536ZM20.5164 20.3424C20.5164 22.0862 19.4516 22.5241 17.6557 22.5241H16.0927V18.1688H18.3507C19.7088 18.1688 20.5164 18.9603 20.5164 20.3424ZM31.7664 9.02411L23.1199 0.377679C22.8789 0.136607 22.5534 0 22.2119 0H5.14405C4.43289 0 3.85834 0.574554 3.85834 1.28571V34.7143C3.85834 35.4254 4.43289 36 5.14405 36H30.8583C31.5695 36 32.1441 35.4254 32.1441 34.7143V9.93616C32.1441 9.59464 32.0074 9.26518 31.7664 9.02411ZM29.1789 10.5268H21.6173V2.96518L29.1789 10.5268ZM29.2512 33.1071H6.75119V2.89286H18.8851V11.5714C18.8851 12.019 19.0629 12.4482 19.3794 12.7647C19.6958 13.0811 20.1251 13.2589 20.5726 13.2589H29.2512V33.1071Z" />
    </g>
    <defs>
        <clipPath id="clip0_16_305">
            <rect width="36" height="36" />
        </clipPath>
    </defs>
</svg>
