<svg width="36" height="36" viewBox="0 0 36 36" xmlns="http://www.w3.org/2000/svg">
    <g clip-path="url(#clip0_16_301)">
        <path d="M19.6515 17.8835L16.5256 21.8692L14.8743 19.7638C14.8442 19.7254 14.8058 19.6944 14.7619 19.673C14.7181 19.6516 14.6699 19.6405 14.6211 19.6405C14.5724 19.6405 14.5242 19.6516 14.4804 19.673C14.4365 19.6944 14.3981 19.7254 14.368 19.7638L10.3582 24.8746C10.3211 24.9219 10.2981 24.9788 10.2918 25.0386C10.2855 25.0985 10.2961 25.1589 10.3225 25.2129C10.3489 25.267 10.39 25.3125 10.4411 25.3444C10.4922 25.3762 10.5511 25.393 10.6113 25.3929H25.393C25.6622 25.3929 25.8109 25.0835 25.6461 24.8746L20.1618 17.8835C20.1313 17.845 20.0925 17.8139 20.0483 17.7926C20.0042 17.7712 19.9557 17.7601 19.9066 17.7601C19.8576 17.7601 19.8091 17.7712 19.7649 17.7926C19.7207 17.8139 19.682 17.845 19.6515 17.8835ZM11.893 15.1875C11.893 15.6137 12.0623 16.0225 12.3637 16.3239C12.6651 16.6253 13.0739 16.7946 13.5002 16.7946C13.9264 16.7946 14.3352 16.6253 14.6366 16.3239C14.938 16.0225 15.1073 15.6137 15.1073 15.1875C15.1073 14.7613 14.938 14.3525 14.6366 14.0511C14.3352 13.7497 13.9264 13.5804 13.5002 13.5804C13.0739 13.5804 12.6651 13.7497 12.3637 14.0511C12.0623 14.3525 11.893 14.7613 11.893 15.1875ZM31.7653 9.02411L23.1189 0.377679C22.8778 0.136607 22.5524 0 22.2109 0H5.14301C4.43185 0 3.8573 0.574554 3.8573 1.28571V34.7143C3.8573 35.4254 4.43185 36 5.14301 36H30.8573C31.5685 36 32.143 35.4254 32.143 34.7143V9.93616C32.143 9.59464 32.0064 9.26518 31.7653 9.02411ZM29.1778 10.5268H21.6162V2.96518L29.1778 10.5268ZM29.2502 33.1071H6.75016V2.89286H18.8841V11.5714C18.8841 12.019 19.0619 12.4482 19.3783 12.7647C19.6948 13.0811 20.124 13.2589 20.5716 13.2589H29.2502V33.1071Z" />
    </g>
    <defs>
        <clipPath id="clip0_16_301">
            <rect width="36" height="36" />
        </clipPath>
    </defs>
</svg>
