<svg width="36" height="36" viewBox="0 0 36 36" xmlns="http://www.w3.org/2000/svg">
    <g clip-path="url(#clip0_16_299)">
        <path d="M31.7664 9.02411L23.1199 0.377679C22.8789 0.136607 22.5534 0 22.2119 0H5.14405C4.43289 0 3.85834 0.574554 3.85834 1.28571V34.7143C3.85834 35.4254 4.43289 36 5.14405 36H30.8583C31.5695 36 32.1441 35.4254 32.1441 34.7143V9.93616C32.1441 9.59464 32.0074 9.26518 31.7664 9.02411ZM29.1789 10.5268H21.6173V2.96518L29.1789 10.5268ZM29.2512 33.1071H6.75119V2.89286H18.8851V11.5714C18.8851 12.019 19.0629 12.4482 19.3794 12.7647C19.6958 13.0811 20.1251 13.2589 20.5726 13.2589H29.2512V33.1071Z" />
    </g>
    <defs>
        <clipPath id="clip0_16_299">
            <rect width="36" height="36" />
        </clipPath>
    </defs>
</svg>
