<svg width="36" height="36" viewBox="0 0 36 36" xmlns="http://www.w3.org/2000/svg">
    <g clip-path="url(#clip0_16_309)">
        <path d="M31.7664 9.02411L23.1199 0.377679C22.8789 0.136607 22.5534 0 22.2119 0H5.14405C4.43289 0 3.85834 0.574554 3.85834 1.28571V34.7143C3.85834 35.4254 4.43289 36 5.14405 36H30.8583C31.5695 36 32.1441 35.4254 32.1441 34.7143V9.93616C32.1441 9.59464 32.0074 9.26518 31.7664 9.02411ZM29.1789 10.5268H21.6173V2.96518L29.1789 10.5268ZM29.2512 33.1071H6.75119V2.89286H18.8851V11.5714C18.8851 12.019 19.0629 12.4482 19.3794 12.7647C19.6958 13.0811 20.1251 13.2589 20.5726 13.2589H29.2512V33.1071ZM18.6481 16.3929H17.3543C17.1333 16.3929 16.9405 16.5415 16.8882 16.7585L14.8914 24.75L13.0391 16.7665C12.9869 16.5496 12.7941 16.3929 12.5691 16.3929H11.1467C11.0728 16.393 10.9999 16.41 10.9337 16.4428C10.8674 16.4755 10.8095 16.523 10.7645 16.5816C10.7195 16.6402 10.6885 16.7084 10.674 16.7808C10.6594 16.8533 10.6617 16.9281 10.6807 16.9996L13.6619 28.0888C13.7182 28.2978 13.911 28.4464 14.128 28.4464H15.4137C15.6307 28.4464 15.8235 28.3018 15.8798 28.0888L18.0012 20.1737L20.1226 28.0888C20.1789 28.2978 20.3717 28.4464 20.5887 28.4464H21.8664C22.0833 28.4464 22.2762 28.3018 22.3324 28.0888L25.3217 16.9996C25.3405 16.9281 25.3427 16.8533 25.3281 16.781C25.3135 16.7086 25.2825 16.6405 25.2375 16.5819C25.1925 16.5233 25.1347 16.4758 25.0685 16.4431C25.0023 16.4103 24.9295 16.3931 24.8557 16.3929H23.4253C23.2003 16.3929 23.0074 16.5496 22.9552 16.7665L21.115 24.7661L19.1141 16.7585C19.0619 16.5415 18.8691 16.3929 18.6481 16.3929Z" />
    </g>
    <defs>
        <clipPath id="clip0_16_309">
            <rect width="36" height="36" />
        </clipPath>
    </defs>
</svg>
