<svg width="36" height="36" viewBox="0 0 36 36" xmlns="http://www.w3.org/2000/svg">
    <g clip-path="url(#clip0_16_303)">
        <path d="M18.7745 20.5071L18.7866 20.4509C19.0196 19.4906 19.3129 18.2933 19.0839 17.2085C18.9312 16.3527 18.3004 16.0192 17.762 15.9951C17.1272 15.967 16.5607 16.3286 16.42 16.8549C16.1549 17.8192 16.3919 19.1371 16.8258 20.8165C16.2794 22.1183 15.4075 24.0107 14.7687 25.1357C13.5794 25.7504 11.9843 26.6987 11.7473 27.896C11.6991 28.117 11.7553 28.3982 11.8879 28.6513C12.0366 28.9326 12.2736 29.1496 12.5508 29.254C12.6714 29.2982 12.816 29.3344 12.9848 29.3344C13.6919 29.3344 14.837 28.7638 16.3638 26.1442C16.5968 26.0679 16.8379 25.9875 17.0709 25.9071C18.1638 25.5375 19.2968 25.1518 20.3214 24.979C21.4544 25.5857 22.7442 25.9754 23.62 25.9754C24.4879 25.9754 24.8294 25.4612 24.958 25.1518C25.183 24.6094 25.0745 23.9263 24.7089 23.5607C24.1785 23.0384 22.8888 22.9018 20.8799 23.1509C19.8915 22.5482 19.2446 21.7286 18.7745 20.5071ZM14.3669 26.6103C13.8084 27.4219 13.3866 27.8277 13.1575 28.0045C13.4267 27.5103 13.9531 26.9879 14.3669 26.6103ZM17.8866 17.1482C18.0955 17.5058 18.0674 18.5866 17.9066 19.133C17.7098 18.3335 17.6816 17.2004 17.7982 17.0679C17.8303 17.0719 17.8584 17.096 17.8866 17.1482ZM17.8223 21.9897C18.2522 22.733 18.7946 23.3719 19.3933 23.846C18.5254 24.0429 17.7339 24.3683 17.0267 24.6576C16.858 24.7259 16.6933 24.7942 16.5325 24.8585C17.0669 23.8902 17.5129 22.7933 17.8223 21.9897ZM24.0741 24.6214C24.0781 24.6295 24.0821 24.6415 24.058 24.6576H24.05L24.0419 24.6696C24.0098 24.6897 23.6803 24.8826 22.262 24.3241C23.8933 24.2478 24.07 24.6174 24.0741 24.6214ZM31.7642 9.02411L23.1178 0.377679C22.8767 0.136607 22.5513 0 22.2098 0H5.14192C4.43075 0 3.8562 0.574554 3.8562 1.28571V34.7143C3.8562 35.4254 4.43075 36 5.14192 36H30.8562C31.5674 36 32.1419 35.4254 32.1419 34.7143V9.93616C32.1419 9.59464 32.0053 9.26518 31.7642 9.02411ZM29.1767 10.5268H21.6151V2.96518L29.1767 10.5268ZM29.2491 33.1071H6.74906V2.89286H18.883V11.5714C18.883 12.019 19.0608 12.4482 19.3772 12.7647C19.6937 13.0811 20.1229 13.2589 20.5705 13.2589H29.2491V33.1071Z" />
    </g>
    <defs>
        <clipPath id="clip0_16_303">
            <rect width="36" height="36" />
        </clipPath>
    </defs>
</svg>
