<svg width="36" height="36" viewBox="0 0 36 36" xmlns="http://www.w3.org/2000/svg">
    <path d="M26.5188 6.19863V3.09283C26.5188 2.82363 26.2095 2.67497 26.0005 2.83971L7.88802 16.9866C7.73413 17.1063 7.60961 17.2595 7.52395 17.4346C7.4383 17.6097 7.39377 17.8021 7.39377 17.9971C7.39377 18.192 7.4383 18.3844 7.52395 18.5595C7.60961 18.7346 7.73413 18.8879 7.88802 19.0076L26.0005 33.1544C26.2135 33.3192 26.5188 33.1705 26.5188 32.9013V29.7955C26.5188 29.5986 26.4264 29.4098 26.2737 29.2893L11.8095 17.9991L26.2737 6.70488C26.4264 6.58435 26.5188 6.39551 26.5188 6.19863Z" />
</svg>
