<svg width="36" height="36" viewBox="0 0 36 36" xmlns="http://www.w3.org/2000/svg">
    <path d="M20.4903 24.1605C20.4299 24.1007 20.3483 24.0671 20.2633 24.0671C20.1783 24.0671 20.0967 24.1007 20.0363 24.1605L15.3675 28.8293C13.2059 30.9909 9.5577 31.2199 7.17109 28.8293C4.78046 26.4386 5.00948 22.7944 7.17109 20.6328L11.8398 15.9641C11.9644 15.8395 11.9644 15.6346 11.8398 15.5101L10.2407 13.9109C10.1803 13.8511 10.0987 13.8176 10.0137 13.8176C9.92871 13.8176 9.84713 13.8511 9.78671 13.9109L5.11796 18.5797C1.71886 21.9788 1.71886 27.4793 5.11796 30.8743C8.51707 34.2694 14.0175 34.2735 17.4126 30.8743L22.0814 26.2056C22.2059 26.081 22.2059 25.8761 22.0814 25.7516L20.4903 24.1605ZM30.8805 5.11586C27.4814 1.71675 21.9809 1.71675 18.5858 5.11586L13.9131 9.78461C13.8532 9.84502 13.8197 9.9266 13.8197 10.0116C13.8197 10.0966 13.8532 10.1782 13.9131 10.2386L15.5081 11.8337C15.6327 11.9583 15.8376 11.9583 15.9622 11.8337L20.6309 7.16497C22.7925 5.00336 26.4407 4.77434 28.8273 7.16497C31.218 9.55559 30.9889 13.1998 28.8273 15.3614L24.1586 20.0301C24.0988 20.0906 24.0652 20.1721 24.0652 20.2572C24.0652 20.3422 24.0988 20.4238 24.1586 20.4842L25.7577 22.0833C25.8822 22.2078 26.0872 22.2078 26.2117 22.0833L30.8805 17.4145C34.2756 14.0154 34.2756 8.51497 30.8805 5.11586ZM21.9407 12.3842C21.8803 12.3243 21.7987 12.2908 21.7137 12.2908C21.6287 12.2908 21.5471 12.3243 21.4867 12.3842L12.3863 21.4806C12.3264 21.541 12.2929 21.6226 12.2929 21.7076C12.2929 21.7926 12.3264 21.8742 12.3863 21.9346L13.9773 23.5257C14.1019 23.6502 14.3068 23.6502 14.4314 23.5257L23.5278 14.4293C23.6523 14.3047 23.6523 14.0998 23.5278 13.9752L21.9407 12.3842Z" />
</svg>
