<svg width="36" height="36" viewBox="0 0 36 36" xmlns="http://www.w3.org/2000/svg">
    <path d="M13.8221 15.1888H33.1078C33.2846 15.1888 33.4292 15.0441 33.4292 14.8673V12.6173C33.4292 12.4405 33.2846 12.2959 33.1078 12.2959H13.8221C13.6453 12.2959 13.5006 12.4405 13.5006 12.6173V14.8673C13.5006 15.0441 13.6453 15.1888 13.8221 15.1888ZM13.5006 23.3852C13.5006 23.562 13.6453 23.7066 13.8221 23.7066H33.1078C33.2846 23.7066 33.4292 23.562 33.4292 23.3852V21.1352C33.4292 20.9584 33.2846 20.8138 33.1078 20.8138H13.8221C13.6453 20.8138 13.5006 20.9584 13.5006 21.1352V23.3852ZM33.7506 3.8584H2.25063C2.07384 3.8584 1.9292 4.00304 1.9292 4.17983V6.42983C1.9292 6.60661 2.07384 6.75126 2.25063 6.75126H33.7506C33.9274 6.75126 34.0721 6.60661 34.0721 6.42983V4.17983C34.0721 4.00304 33.9274 3.8584 33.7506 3.8584ZM33.7506 29.2513H2.25063C2.07384 29.2513 1.9292 29.3959 1.9292 29.5727V31.8227C1.9292 31.9995 2.07384 32.1441 2.25063 32.1441H33.7506C33.9274 32.1441 34.0721 31.9995 34.0721 31.8227V29.5727C34.0721 29.3959 33.9274 29.2513 33.7506 29.2513ZM3.15063 23.2285L9.43054 18.2825C9.47282 18.2493 9.507 18.2069 9.53051 18.1585C9.55401 18.1101 9.56623 18.057 9.56623 18.0033C9.56623 17.9495 9.55401 17.8964 9.53051 17.848C9.507 17.7997 9.47282 17.7573 9.43054 17.724L3.15063 12.774C2.91759 12.5892 2.57206 12.7539 2.57206 13.0513V22.9472C2.57203 23.0143 2.5909 23.0801 2.62649 23.137C2.66208 23.1939 2.71296 23.2396 2.77331 23.269C2.83366 23.2983 2.90106 23.3101 2.96778 23.3029C3.0345 23.2957 3.09787 23.27 3.15063 23.2285Z" />
</svg>
