<svg width="36" height="36" viewBox="0 0 36 36" xmlns="http://www.w3.org/2000/svg">
    <path d="M32.7863 1.93347C32.6336 1.93347 32.4769 1.9616 32.3202 2.02588L9.16131 11.3312H2.57203C2.21845 11.3312 1.92917 11.6286 1.92917 11.9982V24.0116C1.92917 24.3812 2.21845 24.6786 2.57203 24.6786H6.65819C6.50953 25.1446 6.42917 25.6388 6.42917 26.1411C6.42917 28.7888 8.59078 30.9424 11.2506 30.9424C13.4765 30.9424 15.3528 29.4317 15.9073 27.3906L32.3243 33.9879C32.481 34.0482 32.6377 34.0803 32.7903 34.0803C33.4693 34.0803 34.076 33.5098 34.076 32.7464V3.2674C34.072 2.50401 33.4693 1.93347 32.7863 1.93347ZM11.2506 28.0616C10.1859 28.0616 9.32203 27.2018 9.32203 26.1411C9.32203 25.6911 9.47872 25.2612 9.76399 24.9196L13.1752 26.2897C13.0948 27.2781 12.2631 28.0616 11.2506 28.0616ZM31.1792 30.408L10.2381 21.9946L9.71979 21.7857H4.82203V14.2241H9.71979L10.2381 14.0152L31.1792 5.60178V30.408Z" />
</svg>
