<svg width="36" height="36" viewBox="0 0 36 36" xmlns="http://www.w3.org/2000/svg">
    <g clip-path="url(#clip0_16_371)">
        <path d="M28.9381 21.0753C28.2396 20.3513 27.3972 19.9642 26.5043 19.9642C25.6187 19.9642 24.769 20.3441 24.0417 21.0681L21.7664 23.3262C21.5792 23.2258 21.3919 23.1326 21.2119 23.0394C20.9527 22.9104 20.7079 22.7885 20.4991 22.6595C18.3677 21.3118 16.4308 19.5556 14.573 17.2832C13.673 16.1505 13.0681 15.1971 12.6289 14.2294C13.2193 13.6918 13.7666 13.1326 14.2994 12.595C14.501 12.3943 14.7026 12.1864 14.9043 11.9857C16.4164 10.4803 16.4164 8.53047 14.9043 7.02509L12.9385 5.0681C12.7153 4.84588 12.4849 4.61649 12.2689 4.3871C11.8368 3.94265 11.3832 3.48387 10.9152 3.05376C10.2167 2.36559 9.38145 2 8.50299 2C7.62452 2 6.77486 2.36559 6.0548 3.05376C6.0476 3.06093 6.0476 3.06093 6.0404 3.0681L3.59222 5.52688C2.67055 6.44445 2.14491 7.56272 2.02971 8.86022C1.85689 10.9534 2.47614 12.9032 2.95137 14.1792C4.11786 17.3118 5.86039 20.2151 8.45978 23.3262C11.6136 27.0753 15.4083 30.0358 19.743 32.1219C21.3991 32.9032 23.6097 33.828 26.0795 33.9857C26.2307 33.9928 26.3891 34 26.5331 34C28.1964 34 29.5933 33.405 30.6878 32.2222C30.695 32.2079 30.7094 32.2007 30.7166 32.1864C31.0911 31.7348 31.5231 31.3262 31.9767 30.8889C32.2864 30.595 32.6032 30.2867 32.9128 29.9642C33.6256 29.2258 34.0001 28.3656 34.0001 27.4839C34.0001 26.595 33.6184 25.7419 32.8912 25.0251L28.9381 21.0753ZM31.5159 28.6237C31.5087 28.6237 31.5087 28.6308 31.5159 28.6237C31.2351 28.9247 30.9471 29.1971 30.6374 29.4982C30.1694 29.9427 29.6942 30.4086 29.2477 30.9319C28.5205 31.7061 27.6636 32.0717 26.5403 32.0717C26.4323 32.0717 26.3171 32.0717 26.2091 32.0645C24.0705 31.9283 22.0832 31.0968 20.5927 30.3871C16.5172 28.4229 12.9385 25.6344 9.96469 22.1004C7.50931 19.1541 5.86759 16.4301 4.78031 13.5054C4.11066 11.7204 3.86584 10.3297 3.97385 9.01792C4.04586 8.17921 4.36988 7.48387 4.96752 6.88889L7.42291 4.44444C7.77573 4.1147 8.15016 3.93548 8.51739 3.93548C8.97102 3.93548 9.33825 4.20789 9.56866 4.43728C9.57587 4.44444 9.58307 4.45161 9.59027 4.45878C10.0295 4.86738 10.4471 5.29032 10.8864 5.74194C11.1096 5.97133 11.34 6.20072 11.5704 6.43728L13.5362 8.39427C14.2994 9.15412 14.2994 9.85663 13.5362 10.6165C13.3273 10.8244 13.1257 11.0323 12.9169 11.233C12.3121 11.8495 11.736 12.4229 11.1096 12.9821C11.0952 12.9964 11.0808 13.0036 11.0736 13.0179C10.4543 13.6344 10.5695 14.2366 10.6991 14.6452C10.7063 14.6667 10.7135 14.6882 10.7207 14.7097C11.232 15.9427 11.952 17.1039 13.0465 18.4875L13.0537 18.4946C15.0411 20.9319 17.1364 22.8315 19.4478 24.2867C19.743 24.4731 20.0454 24.6237 20.3335 24.767C20.5927 24.8961 20.8375 25.0179 21.0463 25.147C21.0751 25.1613 21.1039 25.1828 21.1327 25.1971C21.3775 25.319 21.608 25.3763 21.8456 25.3763C22.4432 25.3763 22.8176 25.0036 22.9401 24.8817L25.4026 22.4301C25.6475 22.1864 26.0363 21.8925 26.4899 21.8925C26.9364 21.8925 27.3036 22.172 27.5268 22.4158C27.534 22.4229 27.534 22.4229 27.5412 22.4301L31.5087 26.3799C32.2503 27.1111 32.2503 27.8638 31.5159 28.6237Z" stroke="#495057" />
        <path d="M19.4552 8.5635C21.4459 8.89781 23.2542 9.83997 24.6978 11.2836C26.1415 12.7272 27.076 14.5356 27.4179 16.5263C27.5015 17.0277 27.9346 17.3772 28.4285 17.3772C28.4892 17.3772 28.5424 17.3696 28.6032 17.362C29.1655 17.2709 29.5378 16.739 29.4466 16.1767C29.0363 13.7682 27.8966 11.5723 26.1567 9.83237C24.4167 8.09242 22.2209 6.95271 19.8123 6.54242C19.25 6.45124 18.7258 6.82355 18.627 7.3782C18.5282 7.93286 18.8929 8.47232 19.4552 8.5635Z" />
        <path d="M35.9582 15.8804C35.282 11.9142 33.4128 8.30511 30.5408 5.43304C27.6687 2.56098 24.0596 0.691864 20.0935 0.0156379C19.5388 -0.0831367 19.0145 0.296766 18.9158 0.851423C18.8246 1.41368 19.1969 1.93794 19.7591 2.03672C23.2998 2.63696 26.529 4.31613 29.0971 6.87667C31.6653 9.44481 33.3369 12.674 33.9371 16.2147C34.0207 16.7161 34.4538 17.0657 34.9476 17.0657C35.0084 17.0657 35.0616 17.0581 35.1224 17.0505C35.6771 16.9669 36.057 16.435 35.9582 15.8804Z" />
    </g>
    <defs>
        <clipPath id="clip0_16_371">
            <rect width="36" height="36" />
        </clipPath>
    </defs>
</svg>
