<svg width="36" height="36" viewBox="0 0 36 36" xmlns="http://www.w3.org/2000/svg">
    <g clip-path="url(#clip0_16_217)">
        <path d="M34.7143 3.84985H1.28571C0.574554 3.84985 0 4.42441 0 5.13557V30.8499C0 31.561 0.574554 32.1356 1.28571 32.1356H34.7143C35.4254 32.1356 36 31.561 36 30.8499V5.13557C36 4.42441 35.4254 3.84985 34.7143 3.84985ZM33.1071 29.2427H2.89286V27.6396L8.45759 21.0382L14.4884 28.19L23.8701 17.0686L33.1071 28.0213V29.2427ZM33.1071 24.0275L24.1152 13.3641C23.9866 13.2115 23.7536 13.2115 23.625 13.3641L14.4884 24.1963L8.70268 17.3378C8.57411 17.1851 8.34107 17.1851 8.2125 17.3378L2.89286 23.6458V6.74271H33.1071V24.0275ZM9.64286 15.7427C10.1072 15.7427 10.5669 15.6513 10.9959 15.4736C11.4249 15.2959 11.8147 15.0354 12.143 14.7071C12.4713 14.3788 12.7317 13.989 12.9094 13.5601C13.0871 13.1311 13.1786 12.6713 13.1786 12.207C13.1786 11.7427 13.0871 11.2829 12.9094 10.8539C12.7317 10.425 12.4713 10.0352 12.143 9.70687C11.8147 9.37855 11.4249 9.11811 10.9959 8.94042C10.5669 8.76274 10.1072 8.67128 9.64286 8.67128C8.70513 8.67128 7.8058 9.04379 7.14273 9.70687C6.47965 10.3699 6.10714 11.2693 6.10714 12.207C6.10714 13.1447 6.47965 14.0441 7.14273 14.7071C7.8058 15.3702 8.70513 15.7427 9.64286 15.7427ZM9.64286 11.082C10.2656 11.082 10.7679 11.5842 10.7679 12.207C10.7679 12.8298 10.2656 13.332 9.64286 13.332C9.02009 13.332 8.51786 12.8298 8.51786 12.207C8.51786 11.5842 9.02009 11.082 9.64286 11.082Z" />
    </g>
    <defs>
        <clipPath id="clip0_16_217">
            <rect width="36" height="36" />
        </clipPath>
    </defs>
</svg>
