<svg width="36" height="36" viewBox="0 0 36 36" xmlns="http://www.w3.org/2000/svg">
    <path d="M16.7943 3.5376H19.205C19.4193 3.5376 19.5265 3.64474 19.5265 3.85903V32.1447C19.5265 32.359 19.4193 32.4662 19.205 32.4662H16.7943C16.58 32.4662 16.4729 32.359 16.4729 32.1447V3.85903C16.4729 3.64474 16.58 3.5376 16.7943 3.5376Z" />
    <path d="M4.50063 16.4751H31.5006C31.7149 16.4751 31.8221 16.5822 31.8221 16.7965V19.2072C31.8221 19.4215 31.7149 19.5287 31.5006 19.5287H4.50063C4.28634 19.5287 4.1792 19.4215 4.1792 19.2072V16.7965C4.1792 16.5822 4.28634 16.4751 4.50063 16.4751Z" />
</svg>
