<svg width="36" height="36" viewBox="0 0 36 36" xmlns="http://www.w3.org/2000/svg">
    <path d="M18 0C8.0748 0 0 8.0748 0 18C0 27.9252 8.0748 36 18 36C27.9252 36 36 27.9252 36 18C36 8.0748 27.9253 0 18 0ZM18 32.7273C9.87938 32.7273 3.27273 26.1207 3.27273 18C3.27273 9.87927 9.87938 3.27273 18 3.27273C26.1206 3.27273 32.7273 9.87938 32.7273 18C32.7273 26.1206 26.1206 32.7273 18 32.7273Z" />
    <path d="M17.9999 19.6171C18 19.6171 17.9998 19.6171 17.9999 19.6171C15.4648 19.6171 13.0813 20.6043 11.2888 22.3969C10.6498 23.0359 10.6498 24.072 11.2888 24.7111C11.6084 25.0306 12.0272 25.1904 12.446 25.1904C12.8648 25.1904 13.2836 25.0306 13.603 24.7111C14.7775 23.5366 16.339 22.8899 17.9999 22.8899C19.6608 22.8899 21.2223 23.5367 22.3968 24.7111C23.0357 25.35 24.0719 25.35 24.7109 24.7111C25.35 24.0721 25.35 23.036 24.7109 22.3969C22.9184 20.6043 20.5351 19.6171 17.9999 19.6171Z" />
    <path d="M12.5607 16.0516C12.9676 15.6458 13.2 15.0829 13.2 14.5091C13.2 13.9353 12.9676 13.3724 12.5607 12.9664C12.1549 12.5607 11.592 12.3273 11.0182 12.3273C10.4433 12.3273 9.88145 12.5607 9.47564 12.9664C9.06982 13.3724 8.83636 13.9353 8.83636 14.5091C8.83636 15.0829 9.06982 15.6458 9.47564 16.0516C9.88145 16.4575 10.4444 16.6909 11.0182 16.6909C11.592 16.6909 12.1549 16.4575 12.5607 16.0516Z" />
    <path d="M24.9818 12.3273C24.4069 12.3273 23.8451 12.5607 23.4393 12.9664C23.0324 13.3724 22.8 13.9353 22.8 14.5091C22.8 15.0829 23.0324 15.6458 23.4393 16.0516C23.8451 16.4575 24.408 16.6909 24.9818 16.6909C25.5556 16.6909 26.1185 16.4573 26.5244 16.0516C26.9313 15.6458 27.1636 15.0829 27.1636 14.5091C27.1636 13.9353 26.9313 13.3724 26.5244 12.9664C26.1185 12.5607 25.5556 12.3273 24.9818 12.3273Z" />
</svg>
