<svg width="36" height="36" viewBox="0 0 36 36" xmlns="http://www.w3.org/2000/svg">
    <path d="M33.9756 31.7661L23.5412 21.3317C25.1604 19.2384 26.0363 16.679 26.0363 13.987C26.0363 10.7647 24.7787 7.74329 22.5046 5.46517C20.2305 3.18704 17.201 1.93347 13.9827 1.93347C10.7644 1.93347 7.73497 3.19106 5.46086 5.46517C3.18274 7.73927 1.92917 10.7647 1.92917 13.987C1.92917 17.2053 3.18676 20.2348 5.46086 22.5089C7.73497 24.787 10.7604 26.0406 13.9827 26.0406C16.6747 26.0406 19.2301 25.1647 21.3234 23.5495L31.7577 33.9799C31.7883 34.0105 31.8247 34.0348 31.8646 34.0514C31.9046 34.0679 31.9475 34.0765 31.9908 34.0765C32.0341 34.0765 32.0769 34.0679 32.1169 34.0514C32.1569 34.0348 32.1932 34.0105 32.2238 33.9799L33.9756 32.2321C34.0062 32.2015 34.0305 32.1652 34.0471 32.1252C34.0636 32.0852 34.0722 32.0424 34.0722 31.9991C34.0722 31.9558 34.0636 31.913 34.0471 31.873C34.0305 31.833 34.0062 31.7967 33.9756 31.7661ZM20.347 20.3513C18.6435 22.0509 16.3854 22.987 13.9827 22.987C11.5801 22.987 9.32203 22.0509 7.61845 20.3513C5.9189 18.6478 4.98274 16.3897 4.98274 13.987C4.98274 11.5844 5.9189 9.32231 7.61845 7.62276C9.32203 5.9232 11.5801 4.98704 13.9827 4.98704C16.3854 4.98704 18.6475 5.91919 20.347 7.62276C22.0466 9.32633 22.9827 11.5844 22.9827 13.987C22.9827 16.3897 22.0466 18.6518 20.347 20.3513Z" />
</svg>
