<svg width="36" height="36" viewBox="0 0 36 36" xmlns="http://www.w3.org/2000/svg">
    <g clip-path="url(#clip0_16_324)">
        <path d="M34.8522 17.4801L1.24278 0.629246C1.10617 0.560942 0.949477 0.544871 0.800816 0.581032C0.635824 0.62182 0.493717 0.726324 0.405611 0.871663C0.317504 1.017 0.290577 1.19133 0.330726 1.35648L3.79412 15.5074C3.84635 15.7203 4.00305 15.8931 4.21198 15.9614L10.1464 17.9984L4.21599 20.0355C4.00707 20.1078 3.85037 20.2766 3.80216 20.4895L0.330726 34.6605C0.294566 34.8092 0.310637 34.9659 0.378941 35.0984C0.535637 35.4159 0.921352 35.5444 1.24278 35.3877L34.8522 18.6333C34.9767 18.573 35.0772 18.4685 35.1414 18.348C35.2981 18.0266 35.1696 17.6409 34.8522 17.4801Z" />
    </g>
    <defs>
        <clipPath id="clip0_16_324">
            <rect width="36" height="36" />
        </clipPath>
    </defs>
</svg>
