<svg width="36" height="36" viewBox="0 0 36 36" xmlns="http://www.w3.org/2000/svg">
    <g clip-path="url(#clip0_16_351)">
        <path d="M34.5853 22.5742L31.9536 20.3242C32.0781 19.5608 32.1424 18.7814 32.1424 18.0019C32.1424 17.2224 32.0781 16.443 31.9536 15.6796L34.5853 13.4296C34.7838 13.2596 34.9258 13.0333 34.9926 12.7807C35.0593 12.528 35.0476 12.2611 34.9589 12.0153L34.9228 11.9108C34.1983 9.88592 33.1134 8.00881 31.7206 6.37019L31.6482 6.28582C31.4793 6.08714 31.2541 5.94432 31.0023 5.87619C30.7506 5.80805 30.4841 5.81779 30.238 5.90412L26.9714 7.06528C25.7661 6.07689 24.4201 5.29742 22.9656 4.75099L22.3348 1.33582C22.2872 1.07884 22.1626 0.842432 21.9774 0.657994C21.7923 0.473556 21.5554 0.34982 21.2982 0.303226L21.1897 0.283137C19.0964 -0.0945417 16.8947 -0.0945417 14.8014 0.283137L14.6929 0.303226C14.4357 0.34982 14.1988 0.473556 14.0137 0.657994C13.8285 0.842432 13.7039 1.07884 13.6563 1.33582L13.0214 4.76707C11.5786 5.31361 10.2349 6.09266 9.04377 7.07331L5.75314 5.90412C5.50711 5.8171 5.24042 5.80701 4.98852 5.87519C4.73662 5.94337 4.51143 6.08659 4.34287 6.28582L4.27055 6.37019C2.87935 8.00997 1.79465 9.88677 1.06832 11.9108L1.03216 12.0153C0.851354 12.5175 1.00002 13.08 1.40582 13.4296L4.06966 15.7037C3.9451 16.459 3.88484 17.2305 3.88484 17.9979C3.88484 18.7693 3.9451 19.5407 4.06966 20.2921L1.40582 22.5662C1.20732 22.7361 1.06525 22.9624 0.998504 23.2151C0.931758 23.4677 0.943496 23.7347 1.03216 23.9805L1.06832 24.0849C1.79555 26.1099 2.87234 27.9782 4.27055 29.6255L4.34287 29.7099C4.51184 29.9086 4.73704 30.0514 4.98879 30.1196C5.24054 30.1877 5.50703 30.178 5.75314 30.0916L9.04377 28.9224C10.2411 29.9068 11.579 30.6863 13.0214 31.2287L13.6563 34.6599C13.7039 34.9169 13.8285 35.1533 14.0137 35.3377C14.1988 35.5222 14.4357 35.6459 14.6929 35.6925L14.8014 35.7126C16.9139 36.0923 19.0772 36.0923 21.1897 35.7126L21.2982 35.6925C21.5554 35.6459 21.7923 35.5222 21.9774 35.3377C22.1626 35.1533 22.2872 34.9169 22.3348 34.6599L22.9656 31.2447C24.4195 30.6997 25.7731 29.9177 26.9714 28.9305L30.238 30.0916C30.484 30.1786 30.7507 30.1887 31.0026 30.1205C31.2545 30.0524 31.4797 29.9092 31.6482 29.7099L31.7206 29.6255C33.1188 27.9742 34.1955 26.1099 34.9228 24.0849L34.9589 23.9805C35.1397 23.4863 34.9911 22.9238 34.5853 22.5742ZM29.1009 16.1537C29.2014 16.7604 29.2536 17.3831 29.2536 18.0059C29.2536 18.6287 29.2014 19.2514 29.1009 19.8581L28.8357 21.4693L31.8371 24.0367C31.3821 25.0849 30.8077 26.0772 30.1255 26.9939L26.3969 25.672L25.1353 26.7086C24.175 27.4961 23.1063 28.1148 21.9491 28.5488L20.4183 29.1233L19.6991 33.0206C18.5644 33.1492 17.4187 33.1492 16.2839 33.0206L15.5647 29.1153L14.046 28.5327C12.9009 28.0988 11.8362 27.48 10.8839 26.6965L9.62234 25.6559L5.86966 26.9898C5.18662 26.0697 4.61609 25.0773 4.15805 24.0327L7.19153 21.4412L6.93037 19.834C6.83394 19.2354 6.78171 18.6166 6.78171 18.0059C6.78171 17.3912 6.82993 16.7764 6.93037 16.1778L7.19153 14.5706L4.15805 11.9791C4.61207 10.9305 5.18662 9.94207 5.86966 9.02198L9.62234 10.3559L10.8839 9.31528C11.8362 8.5318 12.9009 7.91305 14.046 7.47912L15.5688 6.90456L16.288 2.99921C17.417 2.87064 18.5701 2.87064 19.7031 2.99921L20.4223 6.89653L21.9531 7.47108C23.1063 7.90501 24.179 8.52376 25.1393 9.31126L26.4009 10.3479L30.1295 9.02599C30.8125 9.94608 31.3831 10.9385 31.8411 11.9831L28.8397 14.5505L29.1009 16.1537ZM17.9996 10.5327C14.0942 10.5327 10.9281 13.6988 10.9281 17.6041C10.9281 21.5095 14.0942 24.6755 17.9996 24.6755C21.9049 24.6755 25.071 21.5095 25.071 17.6041C25.071 13.6988 21.9049 10.5327 17.9996 10.5327ZM21.1817 20.7863C20.7643 21.2048 20.2683 21.5367 19.7222 21.7629C19.1761 21.9891 18.5907 22.105 17.9996 22.1041C16.7982 22.1041 15.6692 21.634 14.8174 20.7863C14.3989 20.3689 14.0669 19.8729 13.8408 19.3268C13.6146 18.7807 13.4986 18.1952 13.4996 17.6041C13.4996 16.4028 13.9697 15.2738 14.8174 14.422C15.6692 13.5702 16.7982 13.1041 17.9996 13.1041C19.2009 13.1041 20.3299 13.5702 21.1817 14.422C21.6003 14.8393 21.9322 15.3354 22.1584 15.8815C22.3845 16.4276 22.5005 17.013 22.4996 17.6041C22.4996 18.8055 22.0295 19.9345 21.1817 20.7863Z" />
    </g>
    <defs>
        <clipPath id="clip0_16_351">
            <rect width="36" height="36" />
        </clipPath>
    </defs>
</svg>
