<svg width="36" height="36" viewBox="0 0 36 36" xmlns="http://www.w3.org/2000/svg">
    <path d="M11.6429 28.1071C11.6429 26.9621 11.2411 25.9054 10.5701 25.0777L16.5929 16.7527C17.358 16.8921 18.142 16.8921 18.9071 16.7527L24.9299 25.0777C24.2589 25.9054 23.8571 26.9621 23.8571 28.1071C23.8571 30.767 26.0188 32.9286 28.6786 32.9286C31.3384 32.9286 33.5 30.767 33.5 28.1071C33.5 25.4473 31.3384 23.2857 28.6786 23.2857C28.2125 23.2857 27.7665 23.35 27.3406 23.4746L21.6152 15.5674C23.1701 14.3942 24.1786 12.5299 24.1786 10.4286C24.1786 6.87679 21.3018 4 17.75 4C14.1982 4 11.3214 6.87679 11.3214 10.4286C11.3214 12.5299 12.3299 14.3942 13.8848 15.5674L8.15937 23.4746C7.73348 23.35 7.28348 23.2857 6.82143 23.2857C4.16161 23.2857 2 25.4473 2 28.1071C2 30.767 4.16161 32.9286 6.82143 32.9286C9.48125 32.9286 11.6429 30.767 11.6429 28.1071ZM30.7679 28.1071C30.7679 29.2603 29.8317 30.1964 28.6786 30.1964C27.5254 30.1964 26.5893 29.2603 26.5893 28.1071C26.5893 26.954 27.5254 26.0179 28.6786 26.0179C29.8317 26.0179 30.7679 26.954 30.7679 28.1071ZM14.2143 10.4286C14.2143 8.47991 15.8013 6.89286 17.75 6.89286C19.6987 6.89286 21.2857 8.47991 21.2857 10.4286C21.2857 12.3772 19.6987 13.9643 17.75 13.9643C15.8013 13.9643 14.2143 12.3772 14.2143 10.4286ZM4.73214 28.1071C4.73214 26.954 5.6683 26.0179 6.82143 26.0179C7.97455 26.0179 8.91072 26.954 8.91072 28.1071C8.91072 29.2603 7.97455 30.1964 6.82143 30.1964C5.6683 30.1964 4.73214 29.2603 4.73214 28.1071Z" />
</svg>
