<svg width="36" height="36" viewBox="0 0 36 36" xmlns="http://www.w3.org/2000/svg">
    <path d="M22.5745 2.0564C22.3375 2.0564 22.0964 2.12068 21.8754 2.26934L7.63211 11.5787H1.04282C0.689249 11.5787 0.399963 11.868 0.399963 12.2216V23.793C0.399963 24.1466 0.689249 24.4359 1.04282 24.4359H7.63211L21.8754 33.7452C22.0964 33.8899 22.3415 33.9582 22.5745 33.9582C23.2455 33.9582 23.8643 33.4238 23.8643 32.6685V3.34613C23.8643 2.59077 23.2455 2.0564 22.5745 2.0564ZM20.9714 29.6993L9.21514 22.0131L8.49193 21.543H3.29282V14.4716H8.49193L9.21112 14.0015L20.9714 6.31533V29.6993ZM34.9535 16.5609H29.8107C29.4571 16.5609 29.1678 16.8501 29.1678 17.2037V18.8109C29.1678 19.1644 29.4571 19.4537 29.8107 19.4537H34.9535C35.3071 19.4537 35.5964 19.1644 35.5964 18.8109V17.2037C35.5964 16.8501 35.3071 16.5609 34.9535 16.5609ZM33.2701 27.0796L28.8384 24.5202C28.7655 24.4785 28.6852 24.4516 28.602 24.441C28.5188 24.4303 28.4343 24.4362 28.3533 24.4582C28.2724 24.4802 28.1965 24.5179 28.1301 24.5693C28.0638 24.6206 28.0082 24.6845 27.9665 24.7573L27.1669 26.1435C26.9901 26.4488 27.0946 26.8426 27.4 27.0193L31.8317 29.5787C31.9045 29.6204 31.9848 29.6473 32.068 29.658C32.1512 29.6686 32.2357 29.6628 32.3167 29.6408C32.3977 29.6188 32.4735 29.581 32.5399 29.5297C32.6062 29.4784 32.6619 29.4145 32.7035 29.3417L33.5031 27.9555C33.6799 27.6501 33.5714 27.2564 33.2701 27.0796ZM27.9625 11.2573C28.0041 11.3301 28.0598 11.394 28.1261 11.4453C28.1925 11.4966 28.2683 11.5344 28.3493 11.5564C28.4303 11.5784 28.5148 11.5843 28.598 11.5736C28.6812 11.563 28.7615 11.536 28.8343 11.4943L33.266 8.93497C33.5714 8.75818 33.6759 8.36443 33.4991 8.05908L32.7035 6.67693C32.6619 6.60411 32.6062 6.54022 32.5399 6.4889C32.4735 6.43757 32.3977 6.39983 32.3167 6.37781C32.2357 6.3558 32.1512 6.34995 32.068 6.3606C31.9848 6.37125 31.9045 6.39819 31.8317 6.43988L27.4 8.99925C27.2532 9.08479 27.1463 9.22496 27.1027 9.3891C27.059 9.55324 27.0821 9.728 27.1669 9.87515L27.9625 11.2573Z" />
</svg>
