<svg width="36" height="36" viewBox="0 0 36 36" xmlns="http://www.w3.org/2000/svg">
    <path d="M31.9208 28.104C31.1629 26.3087 30.063 24.678 28.6824 23.3027C27.306 21.9234 25.6755 20.8237 23.8811 20.0643C23.865 20.0563 23.8489 20.0522 23.8328 20.0442C26.336 18.2362 27.9632 15.2911 27.9632 11.9683C27.9632 6.46385 23.5034 2.00403 17.9989 2.00403C12.4944 2.00403 8.03462 6.46385 8.03462 11.9683C8.03462 15.2911 9.66185 18.2362 12.165 20.0482C12.1489 20.0563 12.1328 20.0603 12.1168 20.0683C10.3168 20.8277 8.70158 21.9165 7.31542 23.3067C5.93613 24.6831 4.83642 26.3136 4.07703 28.1081C3.331 29.8649 2.92865 31.7484 2.89176 33.6567C2.89069 33.6996 2.89821 33.7423 2.91388 33.7822C2.92956 33.8221 2.95306 33.8585 2.98302 33.8892C3.01297 33.9199 3.04877 33.9443 3.0883 33.961C3.12783 33.9776 3.1703 33.9862 3.21319 33.9862H5.62391C5.80069 33.9862 5.94132 33.8456 5.94533 33.6728C6.02569 30.571 7.27123 27.6661 9.47301 25.4643C11.7511 23.1862 14.7766 21.9326 17.9989 21.9326C21.2212 21.9326 24.2467 23.1862 26.5248 25.4643C28.7266 27.6661 29.9721 30.571 30.0525 33.6728C30.0565 33.8496 30.1971 33.9862 30.3739 33.9862H32.7846C32.8275 33.9862 32.87 33.9776 32.9095 33.961C32.949 33.9443 32.9848 33.9199 33.0148 33.8892C33.0447 33.8585 33.0683 33.8221 33.0839 33.7822C33.0996 33.7423 33.1071 33.6996 33.106 33.6567C33.0659 31.7362 32.6681 29.8679 31.9208 28.104ZM17.9989 18.879C16.1547 18.879 14.419 18.1598 13.1132 16.854C11.8074 15.5482 11.0882 13.8125 11.0882 11.9683C11.0882 10.1241 11.8074 8.3884 13.1132 7.0826C14.419 5.7768 16.1547 5.0576 17.9989 5.0576C19.8431 5.0576 21.5788 5.7768 22.8846 7.0826C24.1904 8.3884 24.9096 10.1241 24.9096 11.9683C24.9096 13.8125 24.1904 15.5482 22.8846 16.854C21.5788 18.1598 19.8431 18.879 17.9989 18.879Z" />
</svg>
