<svg width="36" height="36" viewBox="0 0 36 36" xmlns="http://www.w3.org/2000/svg">
    <path fill-rule="evenodd" clip-rule="evenodd" d="M29.9384 6.01213C26.7809 2.85095 22.5817 1.10928 18.1082 1.10742C8.88996 1.10742 1.38767 8.6095 1.38396 17.8302C1.38273 20.7778 2.15273 23.6551 3.61632 26.1913L1.24368 34.8574L10.1094 32.5317C12.5523 33.8643 15.3025 34.5666 18.1014 34.5674H18.1084C27.3256 34.5674 34.8287 27.0647 34.8322 17.8436C34.834 13.3748 33.0961 9.1731 29.9384 6.01213ZM18.1082 31.743H18.1024C15.6082 31.742 13.1621 31.0717 11.0276 29.8054L10.5202 29.5041L5.25912 30.8842L6.66337 25.7548L6.33276 25.2289C4.94127 23.0157 4.20649 20.4576 4.20773 17.8312C4.21061 10.1672 10.4464 3.93201 18.1137 3.93201C21.8266 3.93324 25.3167 5.38097 27.9411 8.00841C30.5654 10.6359 32.0099 14.1283 32.0086 17.8426C32.0053 25.5072 25.7699 31.743 18.1082 31.743ZM25.7328 21.3323C25.3151 21.123 23.2605 20.1124 22.8773 19.9727C22.4946 19.8333 22.2157 19.7639 21.9374 20.182C21.6587 20.6002 20.858 21.5416 20.6141 21.8203C20.3702 22.0992 20.1267 22.1342 19.7087 21.9249C19.2908 21.7158 17.9444 21.2744 16.3482 19.8508C15.106 18.7427 14.2674 17.3743 14.0235 16.9562C13.78 16.5376 14.0215 16.3332 14.2069 16.1033C14.6592 15.5416 15.1122 14.9527 15.2515 14.674C15.3909 14.395 15.3211 14.1509 15.2164 13.9419C15.1122 13.7328 14.2765 11.6759 13.9284 10.839C13.5889 10.0245 13.2447 10.1345 12.988 10.1217C12.7445 10.1095 12.4658 10.1071 12.1871 10.1071C11.9086 10.1071 11.4558 10.2115 11.0727 10.6301C10.6897 11.0485 9.61032 12.0593 9.61032 14.1161C9.61032 16.173 11.1077 18.16 11.3166 18.4389C11.5254 18.7178 14.2633 22.9386 18.4551 24.7485C19.4521 25.1794 20.2303 25.4363 20.8374 25.6289C21.8385 25.947 22.7492 25.9021 23.4694 25.7945C24.2723 25.6744 25.9415 24.7835 26.29 23.8075C26.6382 22.8313 26.6382 21.9948 26.5335 21.8203C26.4293 21.646 26.1506 21.5416 25.7328 21.3323Z" />
</svg>
