<svg width="340" height="160" viewBox="0 0 340 160" xmlns="http://www.w3.org/2000/svg">
    <path d="M118.347 99.7987C118.181 102.978 118.015 106.206 117.849 109.481C117.683 112.661 117.227 115.744 116.48 118.73C115.816 121.717 114.738 124.415 113.244 126.823C111.834 129.232 109.802 131.159 107.147 132.604C104.824 133.953 102.335 134.868 99.68 135.35C97.0251 135.928 94.3705 136.168 91.7156 136.072C89.0607 135.976 86.4889 135.494 84 134.627C81.5111 133.856 79.2711 132.748 77.28 131.303C75.2889 129.858 73.6711 127.979 72.4267 125.667C71.1822 123.355 70.1867 120.85 69.44 118.152C68.7762 115.455 68.32 112.661 68.0711 109.77C67.8222 106.88 67.6562 104.182 67.5734 101.677C67.2416 95.0297 67.2416 88.4782 67.5734 82.0232C67.5734 80.7708 67.5734 79.3736 67.5734 77.8322C67.5734 76.1943 67.6562 74.6046 67.8222 73.0632C68.0711 71.5218 68.4445 70.1246 68.9422 68.8722C69.44 67.5233 70.2696 66.5117 71.4311 65.8374C73.92 64.296 76.2016 64.1995 78.2756 65.5484C80.4327 66.8973 81.7185 69.6911 82.1334 73.9303C82.3822 76.1463 82.4651 78.6031 82.3822 81.3006C82.3822 83.9982 82.4651 86.4549 82.6311 88.6709C82.714 91.9465 82.7971 95.5115 82.88 99.3651C82.9629 103.123 83.4194 106.495 84.2489 109.481C85.1616 112.468 86.6134 114.732 88.6045 116.274C90.6785 117.719 93.7482 117.767 97.8134 116.418C99.7216 115.744 100.966 114.058 101.547 111.36C102.21 108.662 102.542 104.664 102.542 99.3651C102.542 97.0529 102.501 94.4998 102.418 91.7058C102.335 88.9117 102.293 86.1659 102.293 83.4684C102.293 80.6743 102.335 78.1213 102.418 75.809C102.584 73.4005 102.833 71.5698 103.164 70.3174C103.579 68.5832 104.45 67.2825 105.778 66.4155C107.105 65.5484 108.516 65.1148 110.009 65.1148C111.502 65.0186 112.913 65.3556 114.24 66.1264C115.567 66.8973 116.48 68.1496 116.978 69.8838C117.476 71.4253 117.807 73.4005 117.973 75.809C118.222 78.1213 118.388 80.6743 118.471 83.4684C118.554 86.1659 118.554 88.96 118.471 91.8503C118.471 94.6444 118.43 97.2936 118.347 99.7987ZM144.252 79.4219C144.252 82.1194 144.252 85.1543 144.252 88.5264C144.334 91.8986 144.376 95.4149 144.376 99.0761C144.376 102.641 144.376 106.206 144.376 109.77C144.376 113.239 144.334 116.466 144.252 119.453C144.169 120.898 144.044 122.488 143.878 124.222C143.712 125.86 143.38 127.401 142.883 128.846C142.385 130.292 141.597 131.496 140.518 132.459C139.523 133.326 138.154 133.712 136.412 133.615C133.84 133.423 131.973 132.122 130.812 129.714C129.733 127.305 129.111 123.933 128.945 119.597C128.945 117.381 128.903 114.828 128.82 111.938C128.82 109.048 128.779 106.109 128.696 103.123C128.696 100.136 128.696 97.2456 128.696 94.4516C128.696 91.5613 128.696 88.96 128.696 86.6477C128.696 85.2988 128.654 83.6611 128.572 81.7342C128.572 79.8072 128.613 77.8322 128.696 75.809C128.779 73.7858 128.986 71.8588 129.318 70.0284C129.65 68.1014 130.189 66.5117 130.936 65.2593C131.517 64.4885 132.346 63.9104 133.425 63.5251C134.503 63.0433 135.623 62.8025 136.785 62.8025C138.029 62.8025 139.191 63.0433 140.269 63.5251C141.431 64.0069 142.26 64.6813 142.758 65.5484C143.09 66.1264 143.339 66.9453 143.505 68.0051C143.671 69.065 143.795 70.2691 143.878 71.618C144.044 72.8704 144.127 74.2193 144.127 75.6645C144.21 77.0134 144.252 78.2658 144.252 79.4219ZM139.523 50.2296C136.951 51.0005 134.794 50.7115 133.052 49.3625C131.392 47.9174 130.355 45.7979 129.94 43.0038C129.609 40.9806 129.733 39.1982 130.314 37.6567C130.894 36.1153 131.766 34.9592 132.927 34.1884C134.089 33.3213 135.416 32.936 136.909 33.0322C138.403 33.1285 139.896 33.8031 141.389 35.0554C142.8 36.2116 143.795 37.5605 144.376 39.1019C145.04 40.6433 145.247 42.1367 144.998 43.5819C144.832 45.0271 144.293 46.376 143.38 47.6284C142.468 48.7845 141.182 49.6516 139.523 50.2296Z" fill="#74D2E7" />
    <path d="M190.365 116.184H182.986L205.122 136.322H212.5L190.365 116.184Z" fill="#212529" />
    <path d="M212.5 116.184H205.122L227.257 136.322H234.635L212.5 116.184Z" fill="#212529" />
    <path d="M238.325 106.542C241.603 104.143 245.703 99.4025 245.703 99.4025C245.703 99.4025 248.123 95.3837 249.392 92.6897C251.187 88.8799 252.188 86.6851 253.082 82.6206C254.494 76.1942 253.082 65.8388 253.082 65.8388L249.392 75.9079L238.325 85.977L227.257 89.3334H212.5L175.608 116.184H212.5C212.5 116.184 219.338 114.794 223.568 113.254C229.55 111.077 233.304 110.215 238.325 106.542Z" fill="#DEE2E6" />
    <path d="M146.094 116.185L123.958 136.323H94.4445L216.189 28.9192L219.878 25.5629C219.878 25.5629 223.907 20.9604 227.257 18.8501C229.906 17.1818 231.491 16.1296 234.635 15.4938C237.448 14.9251 239.201 14.9251 242.014 15.4938C245.159 16.1296 246.744 17.1818 249.392 18.8501C252.743 20.9604 254.451 22.5147 256.771 25.5629C258.605 27.9726 260.46 32.2756 260.46 32.2756V42.3447H271.528L253.082 52.4138V47.3792V42.3447C253.082 35.632 234.635 18.8501 223.568 42.3447V75.9083C223.568 75.9083 221.844 82.2381 219.878 85.9774C217.637 90.2409 215.761 92.3678 212.5 96.0465C208.663 100.375 206.376 102.845 201.432 106.116C196.221 109.563 192.658 110.651 186.675 112.828C182.445 114.368 175.608 116.184 175.608 116.184L146.094 116.185Z" fill="black" />
    <path d="M238.324 28.9188C230.174 28.9188 223.568 34.93 223.568 42.3447V75.9083C223.568 75.9083 208.018 90.0276 217.637 89.6805C227.257 89.3334 224.385 89.8084 227.257 89.3334C231.739 88.5919 234.369 88.0335 238.325 85.977C243.632 83.218 246.36 80.7362 249.392 75.9079C251.653 72.3091 253.082 65.8388 253.082 65.8388V42.3447C253.082 34.93 246.474 28.9188 238.324 28.9188Z" fill="#ADB5BD" />
    <path fill-rule="evenodd" clip-rule="evenodd" d="M223.568 75.9083L171.269 71.4863C175.547 73.1037 183.039 78.48 190.495 83.8305C200.562 91.0543 210.563 98.2314 212.5 96.0465C215.761 92.3678 217.637 90.2409 219.878 85.9774C221.844 82.2381 223.568 75.9083 223.568 75.9083Z" fill="#212529" />
    <path d="M242.014 38.9879C242.014 40.8416 240.362 42.3443 238.325 42.3443C236.287 42.3443 234.635 40.8416 234.635 38.9879C234.635 37.1342 236.287 35.6315 238.325 35.6315C240.362 35.6315 242.014 37.1342 242.014 38.9879Z" fill="#F8F9FA" />
    <path d="M271.528 42.3447L253.082 52.4138V47.3792C253.082 47.3792 253.082 45.7006 256.771 44.8615C260.46 44.0225 260.46 42.3447 260.46 42.3447H271.528Z" fill="#C9CC39" />
    <path d="M73.6711 36.3561C74.5838 37.6085 75.04 38.9092 75.04 40.2581C75.04 40.8361 74.9985 41.4624 74.9156 42.1368C74.9156 42.7148 74.874 43.2446 74.7911 43.7264C74.5422 44.7863 74.0029 45.7979 73.1733 46.7613C72.5096 47.3393 71.5971 47.7729 70.4356 48.0619C69.8549 48.2547 69.274 48.3992 68.6933 48.4955C68.1127 48.5917 67.4904 48.7362 66.8267 48.929C66.246 49.0253 65.6651 49.0735 65.0844 49.0735C64.5038 49.0735 63.8816 49.0735 63.2178 49.0735H56.8711C55.3778 49.1698 53.8844 49.2181 52.3911 49.2181C50.9807 49.2181 49.5704 49.2181 48.16 49.2181C48.2429 52.2046 48.2844 55.4322 48.2844 58.9006C48.2844 62.2728 48.2429 66.2227 48.16 70.751C48.16 75.2792 48.1184 80.5298 48.0356 86.5032C48.0356 92.4766 48.0356 99.4134 48.0356 107.314V118.297C48.0356 119.26 48.0771 119.983 48.16 120.465C48.16 120.85 48.16 121.235 48.16 121.621C48.16 121.91 48.1184 122.295 48.0356 122.777C47.8696 123.644 47.7451 124.655 47.6622 125.812C47.6622 126.293 47.6207 126.775 47.5378 127.257C47.4549 127.642 47.3304 128.076 47.1644 128.557C46.8327 128.943 46.6667 129.232 46.6667 129.425L46.2933 130.292C45.8784 131.255 45.0904 132.17 43.9289 133.037C42.1038 134.097 40.0711 134.338 37.8311 133.76C36.4207 133.567 35.3422 133.134 34.5956 132.459C33.8489 131.592 33.3096 130.725 32.9778 129.858C32.48 128.798 32.1896 127.787 32.1067 126.823C31.8578 125.956 31.7333 125.041 31.7333 124.077V49.7961C31.2356 49.7961 30.1984 49.7961 28.6222 49.7961C27.046 49.7961 25.3451 49.7961 23.52 49.7961C21.7778 49.6999 20.1185 49.6033 18.5422 49.5071C16.9659 49.4108 15.8874 49.3143 15.3067 49.2181C14.8089 49.1218 14.0207 48.9773 12.9422 48.7845C11.9467 48.5917 11.117 48.3992 10.4533 48.2064C8.71112 47.6284 7.34223 46.713 6.34667 45.4606C5.43407 44.2082 4.97778 42.8111 4.97778 41.2697C4.97778 40.6916 4.97778 40.1135 4.97778 39.5355C4.97778 38.9574 5.06074 38.4276 5.22667 37.9458C5.47556 36.7897 6.13927 35.8263 7.21778 35.0555C7.54963 34.7664 8.04741 34.4292 8.71112 34.0439C9.45778 33.5621 10.163 33.225 10.8267 33.0322C11.8222 32.647 13.0667 32.3579 14.56 32.1651C15.2237 32.0689 15.8874 32.0206 16.5511 32.0206C17.2148 32.0206 17.92 32.0206 18.6667 32.0206C21.5704 32.0206 24.3082 32.0206 26.88 32.0206C29.5349 32.0206 32.314 31.9724 35.2178 31.8761C40.0296 31.7799 44.8 31.7799 49.5289 31.8761C54.3407 31.8761 59.1111 31.9724 63.84 32.1651C64.9184 32.2614 65.9556 32.4059 66.9511 32.5987C67.9467 32.7915 68.9422 33.1285 69.9378 33.6103C70.6844 33.8993 71.3896 34.2846 72.0533 34.7664C72.7171 35.1517 73.2562 35.6818 73.6711 36.3561Z" fill="#ADA7FF" />
    <path d="M273.302 99.7987C273.138 102.978 272.971 106.206 272.804 109.481C272.64 112.661 272.182 115.744 271.436 118.73C270.773 121.717 269.693 124.415 268.2 126.823C266.791 129.232 264.758 131.159 262.102 132.604C259.78 133.953 257.291 134.868 254.636 135.35C251.982 135.928 249.327 136.169 246.671 136.072C244.018 135.976 241.444 135.494 238.956 134.627C236.467 133.856 234.227 132.748 232.236 131.303C230.244 129.858 228.627 127.979 227.382 125.667C226.138 123.355 225.142 120.85 224.396 118.152C223.733 115.455 223.276 112.661 223.027 109.77C222.778 106.88 222.613 104.182 222.529 101.677C222.198 95.0297 222.198 88.4782 222.529 82.0232C222.529 80.7708 222.529 79.3737 222.529 77.8322C222.529 76.1943 222.613 74.6046 222.778 73.0632C223.027 71.5218 223.4 70.1246 223.898 68.8723C224.396 67.5233 225.227 66.5117 226.387 65.8374C228.876 64.296 231.158 64.1995 233.231 65.5484C235.389 66.8973 236.676 69.6911 237.089 73.9303C237.338 76.1463 237.422 78.6031 237.338 81.3006C237.338 83.9982 237.422 86.455 237.587 88.671C237.671 91.9466 237.753 95.5115 237.836 99.3652C237.92 103.123 238.376 106.495 239.204 109.481C240.118 112.468 241.569 114.732 243.56 116.274C245.636 117.719 248.704 117.767 252.769 116.418C254.678 115.744 255.922 114.058 256.502 111.36C257.167 108.662 257.498 104.664 257.498 99.3652C257.498 97.0529 257.458 94.4999 257.373 91.7058C257.291 88.9117 257.249 86.1659 257.249 83.4684C257.249 80.6743 257.291 78.1213 257.373 75.809C257.54 73.4005 257.789 71.5698 258.12 70.3174C258.536 68.5832 259.407 67.2826 260.733 66.4155C262.062 65.5484 263.471 65.1148 264.964 65.1148C266.458 65.0186 267.869 65.3556 269.196 66.1264C270.524 66.8973 271.436 68.1497 271.933 69.8839C272.431 71.4253 272.764 73.4005 272.929 75.809C273.178 78.1213 273.344 80.6743 273.427 83.4684C273.511 86.1659 273.511 88.96 273.427 91.8503C273.427 94.6444 273.387 97.2937 273.302 99.7987ZM299.209 79.4219C299.209 82.1195 299.209 85.1543 299.209 88.5264C299.291 91.8986 299.333 95.415 299.333 99.0761C299.333 102.641 299.333 106.206 299.333 109.77C299.333 113.239 299.291 116.466 299.209 119.453C299.124 120.898 299 122.488 298.836 124.222C298.669 125.86 298.338 127.401 297.84 128.846C297.342 130.292 296.553 131.496 295.476 132.459C294.48 133.326 293.111 133.712 291.369 133.615C288.796 133.423 286.929 132.122 285.769 129.714C284.689 127.305 284.067 123.933 283.902 119.597C283.902 117.381 283.86 114.828 283.778 111.938C283.778 109.048 283.736 106.109 283.653 103.123C283.653 100.136 283.653 97.2457 283.653 94.4516C283.653 91.5613 283.653 88.96 283.653 86.6477C283.653 85.2988 283.611 83.6612 283.529 81.7342C283.529 79.8072 283.569 77.8322 283.653 75.809C283.736 73.7858 283.942 71.8588 284.276 70.0284C284.607 68.1014 285.147 66.5117 285.893 65.2593C286.473 64.4885 287.302 63.9104 288.382 63.5252C289.46 63.0433 290.58 62.8026 291.742 62.8026C292.987 62.8026 294.147 63.0433 295.227 63.5252C296.387 64.007 297.218 64.6813 297.716 65.5484C298.047 66.1264 298.296 66.9453 298.462 68.0052C298.627 69.065 298.751 70.2692 298.836 71.6181C299 72.8704 299.084 74.2193 299.084 75.6645C299.167 77.0134 299.209 78.2658 299.209 79.4219ZM294.48 50.2297C291.907 51.0005 289.751 50.7115 288.009 49.3626C286.349 47.9174 285.311 45.7979 284.898 43.0039C284.564 40.9806 284.689 39.1982 285.271 37.6568C285.851 36.1153 286.722 34.9592 287.884 34.1884C289.044 33.3213 290.373 32.936 291.867 33.0323C293.36 33.1285 294.853 33.8031 296.347 35.0555C297.756 36.2116 298.751 37.5605 299.333 39.1019C299.996 40.6434 300.204 42.1368 299.956 43.5819C299.789 45.0271 299.249 46.376 298.338 47.6284C297.424 48.7845 296.138 49.6516 294.48 50.2297Z" fill="#74D2E7" />
    <path d="M227.004 36.3561C227.918 37.6085 228.373 38.9092 228.373 40.2581C228.373 40.8361 228.331 41.4624 228.249 42.1368C228.249 42.7148 228.207 43.2446 228.124 43.7264C227.876 44.7863 227.336 45.7979 226.507 46.7613C225.842 47.3393 224.931 47.7729 223.769 48.0619C223.189 48.2547 222.607 48.3992 222.027 48.4955C221.446 48.5917 220.824 48.7362 220.16 48.929C219.579 49.0253 218.998 49.0735 218.418 49.0735C217.837 49.0735 217.215 49.0735 216.551 49.0735H210.204C208.711 49.1698 207.218 49.2181 205.724 49.2181C204.314 49.2181 202.904 49.2181 201.493 49.2181C201.576 52.2046 201.618 55.4322 201.618 58.9006C201.618 62.2728 201.576 66.2227 201.493 70.751C201.493 75.2792 201.452 80.5298 201.369 86.5032C201.369 92.4766 201.369 99.4134 201.369 107.314V118.297C201.369 119.26 201.41 119.983 201.493 120.465C201.493 120.85 201.493 121.235 201.493 121.621C201.493 121.91 201.452 122.295 201.369 122.777C201.203 123.644 201.078 124.655 200.996 125.812C200.996 126.293 200.954 126.775 200.871 127.257C200.788 127.642 200.664 128.076 200.498 128.557C200.166 128.943 200 129.232 200 129.425L199.627 130.292C199.212 131.255 198.424 132.17 197.262 133.037C195.437 134.097 193.404 134.338 191.164 133.76C189.754 133.567 188.676 133.134 187.929 132.459C187.182 131.592 186.643 130.725 186.311 129.858C185.813 128.798 185.523 127.787 185.44 126.823C185.191 125.956 185.067 125.041 185.067 124.077V49.7961C184.569 49.7961 183.532 49.7961 181.956 49.7961C180.379 49.7961 178.678 49.7961 176.853 49.7961C175.111 49.6999 173.452 49.6033 171.876 49.5071C170.299 49.4108 169.221 49.3143 168.64 49.2181C168.142 49.1218 167.354 48.9773 166.276 48.7845C165.28 48.5917 164.45 48.3992 163.787 48.2064C162.044 47.6284 160.676 46.713 159.68 45.4606C158.767 44.2082 158.311 42.8111 158.311 41.2697C158.311 40.6916 158.311 40.1135 158.311 39.5355C158.311 38.9574 158.394 38.4276 158.56 37.9458C158.809 36.7897 159.473 35.8263 160.551 35.0555C160.883 34.7664 161.381 34.4292 162.044 34.0439C162.791 33.5621 163.496 33.225 164.16 33.0322C165.156 32.647 166.4 32.3579 167.893 32.1651C168.557 32.0689 169.221 32.0206 169.884 32.0206C170.548 32.0206 171.253 32.0206 172 32.0206C174.904 32.0206 177.642 32.0206 180.213 32.0206C182.868 32.0206 185.647 31.9724 188.551 31.8761C193.363 31.7799 198.133 31.7799 202.862 31.8761C207.674 31.8761 212.444 31.9724 217.173 32.1651C218.252 32.2614 219.289 32.4059 220.284 32.5987C221.28 32.7915 222.276 33.1285 223.271 33.6103C224.018 33.8993 224.722 34.2846 225.387 34.7664C226.051 35.1517 226.589 35.6818 227.004 36.3561Z" fill="#ADA7FF" />
</svg>
