<svg width="225" height="169" viewBox="0 0 225 169" xmlns="http://www.w3.org/2000/svg">
    <path d="M121.875 140.932H112.5L140.625 168.999H150L121.875 140.932Z" fill="#212529" />
    <path d="M150 140.932H140.625L168.75 168.999H178.125L150 140.932Z" fill="#212529" />
    <path d="M182.813 127.492C186.978 124.15 192.188 117.542 192.188 117.542C192.188 117.542 195.263 111.941 196.875 108.186C199.155 102.876 200.427 99.8173 201.562 94.1525C203.358 85.1957 201.562 70.7629 201.562 70.7629L196.875 84.7967L182.812 98.8304L168.75 103.508H150L103.125 140.932H150C150 140.932 158.688 138.994 164.063 136.848C171.664 133.814 176.433 132.613 182.813 127.492Z" fill="#DEE2E6" />
    <path d="M65.625 140.932L37.5 169H0L154.688 19.3062L159.375 14.6282C159.375 14.6282 164.493 8.21354 168.75 5.27238C172.115 2.94718 174.129 1.4806 178.125 0.594448C181.699 -0.198149 183.926 -0.198149 187.5 0.594448C191.496 1.4806 193.51 2.94718 196.875 5.27238C201.132 8.21354 203.303 10.3799 206.25 14.6282C208.58 17.9869 210.938 23.9841 210.938 23.9841V38.0179H225L201.562 52.0517V45.0348V38.0179C201.562 28.662 178.125 5.27238 164.062 38.0179V84.7972C164.062 84.7972 161.873 93.6194 159.375 98.831C156.527 104.773 154.143 107.738 150 112.865C145.125 118.898 142.219 122.34 135.938 126.899C129.317 131.704 124.789 133.22 117.188 136.254C111.813 138.4 103.125 140.932 103.125 140.932L65.625 140.932Z" fill="black" />
    <path d="M182.812 19.3056C172.457 19.3056 164.062 27.6837 164.062 38.0179V84.7972C164.062 84.7972 144.305 104.476 156.527 103.992C168.749 103.508 165.101 104.17 168.75 103.508C174.445 102.475 177.786 101.697 182.812 98.8304C189.556 94.985 193.022 91.5261 196.875 84.7967C199.747 79.7808 201.562 70.7629 201.562 70.7629V38.0179C201.562 27.6837 193.168 19.3056 182.812 19.3056Z" fill="#ADB5BD" />
    <path fill-rule="evenodd" clip-rule="evenodd" d="M164.062 84.7972L97.612 78.6341C103.048 80.8883 112.567 88.3816 122.041 95.8388C134.832 105.907 147.539 115.91 150 112.865C154.143 107.738 156.527 104.773 159.375 98.831C161.873 93.6194 164.062 84.7972 164.062 84.7972Z" fill="#212529" />
    <path d="M187.5 33.3394C187.5 35.923 185.401 38.0173 182.812 38.0173C180.224 38.0173 178.125 35.923 178.125 33.3394C178.125 30.7558 180.224 28.6615 182.812 28.6615C185.401 28.6615 187.5 30.7558 187.5 33.3394Z" fill="#F8F9FA" />
    <path d="M225 38.0179L201.562 52.0517V45.0348C201.562 45.0348 201.562 42.6953 206.25 41.5258C210.938 40.3563 210.938 38.0179 210.938 38.0179H225Z" fill="#C9CC39" />
</svg>
